<svg version="1.1" id="Layer_1" xmlns="http://www.w3.org/2000/svg" xmlns:xlink="http://www.w3.org/1999/xlink" x="0px" y="0px"
	 width="100%" viewBox="0 0 360 360" enable-background="new 0 0 360 360" xml:space="preserve">
<path fill="#000000" opacity="1.000000" stroke="none" 
	d="
M203.000000,361.000000 
	C135.356659,361.000000 68.213310,361.000000 1.034980,361.000000 
	C1.034980,241.064987 1.034980,121.129974 1.034980,1.097476 
	C120.893280,1.097476 240.786667,1.097476 360.840027,1.097476 
	C360.840027,120.999832 360.840027,240.999893 360.840027,361.000000 
	C308.463409,361.000000 255.981705,361.000000 203.000000,361.000000 
M48.742973,341.950592 
	C55.906830,342.058960 55.906265,342.058960 56.022903,335.089996 
	C56.028355,334.764526 56.059799,334.439514 57.003643,334.039154 
	C70.334274,334.024933 83.665901,334.095337 96.994835,333.937836 
	C100.387749,333.897736 102.592865,334.389648 102.026253,338.475250 
	C101.676147,340.999664 102.834381,342.191040 105.452271,342.015076 
	C106.942635,341.914917 108.448875,342.050873 109.985390,342.961395 
	C110.028107,349.998657 110.028107,349.998657 117.238716,349.999969 
	C117.895409,350.000092 118.552116,350.003326 119.208786,349.999481 
	C128.344986,349.945984 126.806061,350.755981 127.919029,342.009827 
	C134.993210,341.964966 134.993423,341.964966 134.994293,334.673065 
	C134.994492,333.016235 134.884598,331.350861 135.015579,329.704529 
	C135.239777,326.886230 134.013992,325.723724 131.247269,326.001678 
	C128.561905,326.271423 126.861443,325.688263 126.920433,322.327118 
	C126.976295,319.144135 128.709732,318.767273 131.091400,319.012787 
	C134.197906,319.332977 135.300385,317.914398 135.014267,314.963226 
	C134.886963,313.650146 134.993546,312.314423 135.885651,310.993896 
	C141.122955,310.001617 142.547028,312.406921 142.085739,317.317505 
	C141.683777,321.596680 142.060623,325.944702 141.981293,330.260254 
	C141.938705,332.575958 142.409348,334.288910 145.214737,333.980103 
	C148.452881,333.623688 149.332047,335.342957 148.997192,338.154083 
	C148.617874,341.338379 150.236252,342.125763 153.115967,342.039703 
	C158.258560,341.886078 163.431763,341.698700 168.549454,342.087524 
	C173.026291,342.427643 174.699432,340.846863 174.017776,336.497253 
	C173.890961,335.688019 174.012115,334.839935 174.886795,334.001465 
	C176.909042,334.016907 178.931290,334.032318 180.982193,334.940002 
	C181.032333,341.997101 181.032333,341.997894 187.901291,341.999695 
	C192.229202,342.000824 196.561768,341.877075 200.883408,342.041473 
	C203.779144,342.151642 205.344147,341.337006 205.027695,338.143951 
	C204.897736,336.832642 205.100403,335.488373 206.025635,334.056824 
	C213.126862,333.721436 213.025040,335.527893 213.001984,326.698639 
	C212.988251,321.444916 213.012283,316.191132 213.952576,310.994141 
	C221.287308,310.947388 228.622055,310.900635 236.001724,311.764679 
	C236.165756,319.700897 235.058441,318.865417 243.003601,319.930115 
	C243.003891,323.256714 243.137131,326.590271 242.964539,329.907867 
	C242.812378,332.832275 243.731369,334.379364 246.883347,334.001312 
	C249.749466,333.657532 251.421494,334.650970 250.999603,337.841858 
	C250.556732,341.191620 252.138779,342.167603 255.316772,342.049988 
	C260.632019,341.853210 265.964081,341.869843 271.280914,342.044556 
	C274.466736,342.149231 276.527740,341.543732 276.012024,337.744202 
	C275.635529,334.970245 276.906769,333.632019 279.712616,334.011902 
	C283.469452,334.520569 284.122681,332.538055 284.049438,329.312897 
	C283.883270,321.998138 284.049866,314.676453 283.970428,307.358795 
	C283.942047,304.746704 284.141357,302.902924 287.598236,302.920471 
	C291.240295,302.938934 291.060181,305.132538 291.008118,307.554047 
	C290.975952,309.050323 291.001984,310.547852 291.002594,312.044830 
	C291.005463,318.971893 291.005524,318.971893 298.005829,319.941284 
	C298.007477,321.897125 298.004700,323.852997 298.011536,325.808807 
	C298.046143,335.696960 297.353424,333.681366 305.985291,334.935333 
	C306.033356,341.994904 306.033356,341.995697 312.909454,341.997253 
	C317.573883,341.998322 322.242645,341.874664 326.901123,342.040833 
	C329.826904,342.145172 331.412354,341.268158 330.993073,338.114594 
	C330.539276,334.701813 332.237305,333.621063 335.357819,333.990997 
	C338.256927,334.334717 339.052399,332.864105 339.035095,330.158997 
	C338.948822,316.666046 338.966461,303.172150 339.021301,289.678894 
	C339.031006,287.288116 338.432068,285.630432 335.698822,286.036346 
	C331.284149,286.691986 330.891144,284.218048 330.944946,280.718475 
	C331.096130,270.892242 330.937317,261.061523 331.034851,251.233902 
	C331.062256,248.469620 330.562592,246.622025 327.249542,246.993729 
	C324.533203,247.298492 322.858826,246.652451 322.924133,243.287354 
	C322.987274,240.032516 324.828156,239.817154 327.171539,240.012665 
	C329.893280,240.239777 331.338226,239.241898 330.991516,236.349777 
	C330.616241,233.219711 331.719543,231.540756 335.122559,231.993256 
	C338.285919,232.413925 339.093903,230.806732 339.043060,227.893921 
	C338.906464,220.066742 338.892883,212.233551 339.048645,204.407074 
	C339.109924,201.328018 338.380463,199.539581 334.922699,199.998520 
	C331.812347,200.411346 330.621918,198.908936 331.003204,195.952148 
	C331.469086,192.339157 329.393951,191.924271 326.467926,191.960648 
	C317.307068,192.074554 308.143951,192.002899 298.981689,192.001572 
	C291.975830,192.000549 291.975830,191.999481 292.902771,184.998398 
	C298.945526,184.943710 298.945526,184.943710 299.914673,178.006622 
	C306.998688,177.982147 306.997589,177.982147 307.000214,170.725403 
	C307.004150,159.821884 307.009735,148.918381 307.909882,138.003998 
	C314.998688,137.985565 314.999084,137.985565 314.999847,130.723694 
	C315.000488,124.773529 315.001129,118.823364 314.999695,112.873199 
	C314.998016,106.017822 314.997040,106.017891 308.002594,105.996918 
	C307.672028,105.995926 307.341492,105.991623 307.004120,105.055305 
	C307.001465,101.242508 306.922882,97.427704 307.023621,93.617638 
	C307.087738,91.191536 306.352692,89.668167 303.667938,90.026176 
	C299.883240,90.530861 299.052521,88.836517 298.842804,85.241432 
	C298.574036,80.633774 289.465485,82.306419 291.266754,75.586533 
	C290.153107,75.391495 289.045349,75.143425 287.923859,75.019089 
	C287.105011,74.928314 286.268066,75.000809 285.439209,74.999939 
	C279.637146,74.993889 273.835052,74.987686 267.988831,74.092194 
	C267.929535,65.761909 268.337341,67.189407 261.011047,66.990349 
	C260.689178,66.981606 260.368439,66.930824 260.017639,66.014038 
	C259.967285,59.002796 259.967285,59.006149 253.068085,58.998447 
	C250.075150,58.995106 247.082245,58.974766 243.996017,58.074581 
	C243.696884,50.808681 245.409760,51.047520 236.741913,51.048309 
	C231.496521,51.048786 226.251144,51.009224 221.002213,50.090530 
	C220.987671,43.001305 220.987671,43.000450 213.691757,43.000179 
	C199.111618,42.999645 184.529358,43.136272 169.952698,42.910904 
	C165.975632,42.849415 164.439941,44.080914 164.979080,47.976147 
	C165.113983,48.950844 164.989731,49.961407 164.053253,50.992123 
	C160.426849,50.997204 156.796295,51.110851 153.175415,50.972107 
	C150.410538,50.866165 148.572495,51.500286 149.015976,54.739937 
	C149.521454,58.432514 147.600708,59.350735 144.371643,59.030445 
	C142.902573,58.884727 141.379074,59.191109 139.928619,58.972141 
	C135.145691,58.250069 133.239456,60.214268 133.977005,64.943359 
	C134.076202,65.579407 133.915466,66.256012 133.006973,66.975334 
	C125.397209,67.133301 126.054260,66.084625 125.986488,73.954224 
	C125.983620,74.287277 125.963791,74.620193 125.021027,74.982620 
	C116.241249,74.988518 107.451363,75.246246 98.685966,74.894165 
	C94.296005,74.717842 94.557983,77.107262 93.593254,80.135078 
	C92.959167,82.125168 89.257652,83.074036 87.082909,84.694664 
	C86.680450,84.994591 87.002045,86.275452 87.001259,87.103577 
	C86.995300,93.398521 86.992287,99.693459 86.091148,105.995499 
	C79.003136,106.015282 79.001755,106.015282 79.000366,112.854324 
	C78.998787,120.667816 78.999985,128.481308 79.000000,136.294800 
	C79.000015,145.923172 79.004196,146.117401 88.735428,145.908188 
	C92.848549,145.819763 94.156456,147.010513 94.091743,151.204193 
	C93.858345,166.328842 94.025650,181.459335 93.976486,196.587433 
	C93.968140,199.157608 94.074257,201.428223 97.552025,200.983887 
	C101.088341,200.532059 102.444153,202.069046 102.016663,205.513458 
	C101.699623,208.067856 102.889778,209.192322 105.470543,209.016861 
	C106.958649,208.915680 108.461182,209.026550 109.988228,209.927643 
	C110.023033,216.959335 110.023033,216.959137 116.980698,217.009186 
	C117.303749,217.011505 117.626717,217.024323 117.982056,217.924088 
	C118.918411,220.371735 115.679420,225.164062 121.361031,224.883987 
	C125.838867,224.663239 126.068985,226.894150 126.048622,230.315125 
	C125.946793,247.421494 126.050804,264.529053 125.960541,281.635590 
	C125.942810,284.996643 126.071327,287.699463 130.594788,287.028107 
	C133.204681,286.640747 134.103027,288.045990 134.027679,290.550690 
	C133.912872,294.367188 134.000290,298.189758 133.127808,302.006683 
	C131.092163,301.994019 129.056519,301.981354 127.008110,301.074066 
	C126.979980,294.003052 126.979980,294.002747 120.139626,294.000183 
	C118.146545,293.999420 116.145531,294.113678 114.162270,293.974335 
	C111.333069,293.775543 109.583260,294.571869 110.004341,297.800293 
	C110.433128,301.087891 108.967506,302.403656 105.744026,302.008484 
	C102.969337,301.668427 101.639008,302.909454 102.014206,305.711334 
	C102.514122,309.444672 100.569458,310.091736 97.328491,310.054871 
	C85.205475,309.916992 73.078651,309.901276 60.956223,310.062561 
	C57.522526,310.108246 55.422562,309.516937 55.977310,305.497009 
	C56.326744,302.964874 55.136536,301.806122 52.545189,301.983643 
	C51.058399,302.085510 49.557240,301.977570 48.015419,301.073669 
	C47.962666,294.005035 47.962666,294.005035 40.787575,294.003662 
	C40.623363,294.003632 40.459148,294.003357 40.294937,294.003693 
	C30.126282,294.024323 32.369194,293.437897 31.046579,301.988617 
	C24.001402,302.024017 24.001390,302.024017 24.000015,309.231812 
	C23.999889,309.888550 23.996609,310.545349 24.000511,311.202057 
	C24.054859,320.349640 23.241484,318.802734 31.992178,319.922180 
	C32.027504,322.026093 32.062832,324.129974 32.131332,327.089050 
	C32.202377,329.375580 32.273426,331.662140 32.147701,334.805634 
	C32.128551,337.135101 32.109402,339.464600 32.038284,342.717133 
	C31.957535,349.998230 31.957535,349.998260 39.183887,349.999969 
	C39.849682,350.000153 40.515480,350.000305 41.181274,349.999969 
	C48.167694,349.996521 48.168499,349.996460 47.938988,342.853394 
	C47.928314,342.521301 47.880341,342.190369 47.877472,341.912720 
	C47.877472,341.912720 47.826439,341.881622 48.742973,341.950592 
z"/>
<path fill="#10090A" opacity="1.000000" stroke="none" 
	d="
M292.025848,185.021851 
	C291.975830,191.999481 291.975830,192.000549 298.981689,192.001572 
	C308.143951,192.002899 317.307068,192.074554 326.467926,191.960648 
	C329.393951,191.924271 331.469086,192.339157 331.003204,195.952148 
	C330.621918,198.908936 331.812347,200.411346 334.922699,199.998520 
	C338.380463,199.539581 339.109924,201.328018 339.048645,204.407074 
	C338.892883,212.233551 338.906464,220.066742 339.043060,227.893921 
	C339.093903,230.806732 338.285919,232.413925 335.122559,231.993256 
	C331.719543,231.540756 330.616241,233.219711 330.991516,236.349777 
	C331.338226,239.241898 329.893280,240.239777 327.171539,240.012665 
	C324.828156,239.817154 322.987274,240.032516 322.924133,243.287354 
	C322.858826,246.652451 324.533203,247.298492 327.249542,246.993729 
	C330.562592,246.622025 331.062256,248.469620 331.034851,251.233902 
	C330.937317,261.061523 331.096130,270.892242 330.944946,280.718475 
	C330.891144,284.218048 331.284149,286.691986 335.698822,286.036346 
	C338.432068,285.630432 339.031006,287.288116 339.021301,289.678894 
	C338.966461,303.172150 338.948822,316.666046 339.035095,330.158997 
	C339.052399,332.864105 338.256927,334.334717 335.357819,333.990997 
	C332.237305,333.621063 330.539276,334.701813 330.993073,338.114594 
	C331.412354,341.268158 329.826904,342.145172 326.901123,342.040833 
	C322.242645,341.874664 317.573883,341.998322 312.909454,341.997253 
	C306.033356,341.995697 306.033356,341.994904 306.277466,334.460083 
	C306.772858,333.962097 306.976105,333.939392 307.614624,333.883484 
	C310.408783,333.801941 312.767700,333.753510 315.583374,333.757690 
	C320.606903,333.810242 325.173706,333.810242 330.015411,333.810242 
	C330.015411,323.338593 330.015411,313.163269 330.081299,302.540497 
	C330.147217,299.851318 330.147217,297.609589 330.147217,295.164581 
	C327.122986,294.977753 324.703522,294.828278 322.242767,294.232239 
	C322.126709,283.529144 322.051941,273.272583 322.037231,262.570129 
	C322.097351,259.905121 322.097351,257.686005 322.097351,255.031525 
	C319.208282,255.031525 317.093384,255.031525 314.915100,254.564423 
	C314.853149,246.728577 314.854584,239.359848 315.315430,231.979935 
	C317.849579,231.968765 319.924316,231.968765 322.264587,231.968765 
	C322.264587,228.897263 322.264587,226.589310 322.217133,224.157867 
	C322.169678,224.034393 322.300781,224.264221 322.732056,224.245056 
	C325.392853,224.084305 327.622375,223.942703 329.895721,223.798325 
	C329.895721,220.851440 329.895721,218.400665 329.941956,215.512360 
	C329.988159,212.995895 329.988159,210.916946 329.988159,208.737762 
	C327.254211,208.510620 325.040253,208.326660 322.781830,208.139023 
	C322.587433,205.450867 322.425964,203.218094 322.239807,200.644226 
	C317.011566,200.644226 312.120117,200.644226 306.786621,200.515228 
	C303.968079,200.386246 301.591644,200.386246 298.969116,200.386246 
	C298.969116,203.771698 298.969116,206.374542 298.911530,209.410370 
	C298.881042,211.875351 298.908173,213.907349 298.474030,216.002045 
	C287.798370,216.064743 277.583954,216.064743 267.392120,216.064743 
	C267.204834,219.292221 267.073181,221.560425 266.933685,223.964432 
	C264.384857,224.128311 262.145233,224.272308 259.808990,224.422531 
	C259.607635,227.120911 259.437744,229.397583 259.258728,231.796844 
	C256.753662,231.937698 254.487747,232.065109 252.073074,232.200882 
	C251.898697,234.864487 251.741379,237.267365 251.565918,239.947510 
	C246.288284,239.947510 241.328827,239.936249 236.369415,239.949463 
	C215.269257,240.005661 194.169113,240.069122 172.620590,240.075897 
	C170.078705,240.071365 167.985199,240.120880 165.457047,240.096649 
	C162.367661,240.081879 159.712891,240.140884 156.595428,240.114380 
	C151.447968,240.065979 146.763214,240.103104 141.624237,240.088745 
	C138.913712,240.037292 136.657394,240.037292 134.330322,240.037292 
	C134.330322,253.311172 134.330322,265.981079 134.330322,278.950348 
	C137.113831,278.950348 139.576752,278.950348 142.018982,278.973846 
	C141.998306,278.997345 142.047821,278.960144 142.083588,279.430420 
	C142.119354,287.453857 142.119354,295.007050 142.119354,302.545532 
	C145.178482,302.808929 147.418747,303.001862 150.147369,303.236816 
	C150.147369,313.595856 150.147369,323.618805 150.147369,333.987457 
	C158.101288,333.987457 165.532318,333.987457 173.227234,333.992035 
	C173.667007,334.000977 173.842911,334.005371 174.018814,334.009766 
	C174.012115,334.839935 173.890961,335.688019 174.017776,336.497253 
	C174.699432,340.846863 173.026291,342.427643 168.549454,342.087524 
	C163.431763,341.698700 158.258560,341.886078 153.115967,342.039703 
	C150.236252,342.125763 148.617874,341.338379 148.997192,338.154083 
	C149.332047,335.342957 148.452881,333.623688 145.214737,333.980103 
	C142.409348,334.288910 141.938705,332.575958 141.981293,330.260254 
	C142.060623,325.944702 141.683777,321.596680 142.085739,317.317505 
	C142.547028,312.406921 141.122955,310.001617 135.278717,310.623260 
	C134.448471,307.505005 134.225159,304.757385 134.001831,302.009766 
	C134.000290,298.189758 133.912872,294.367188 134.027679,290.550690 
	C134.103027,288.045990 133.204681,286.640747 130.594788,287.028107 
	C126.071327,287.699463 125.942810,284.996643 125.960541,281.635590 
	C126.050804,264.529053 125.946793,247.421494 126.048622,230.315125 
	C126.068985,226.894150 125.838867,224.663239 121.361031,224.883987 
	C115.679420,225.164062 118.918411,220.371735 118.146622,217.418274 
	C118.544693,216.811966 118.760483,216.682068 119.398254,216.442612 
	C122.217888,216.254913 124.597847,216.147369 127.420769,216.090912 
	C129.799194,216.142014 131.734650,216.142014 134.030594,216.142014 
	C134.030594,219.019836 134.030594,221.285355 134.030594,223.851471 
	C170.788391,223.851471 207.175995,223.851471 243.765259,223.851471 
	C243.936371,221.298355 244.097778,218.889709 244.269028,216.334396 
	C247.047791,216.203644 249.514008,216.087601 252.423004,216.043121 
	C254.942017,216.114670 257.018280,216.114670 259.368134,216.114670 
	C259.591949,213.095261 259.781799,210.534180 259.976501,207.963104 
	C259.981354,207.953110 259.958069,207.947205 260.406097,208.016281 
	C262.865967,208.085358 264.877777,208.085358 267.036530,208.085358 
	C267.036530,205.205933 267.036530,203.118256 267.018250,201.015594 
	C267.000000,201.000610 267.031158,201.036652 267.463074,201.007568 
	C270.194122,200.958084 272.493286,200.937698 275.100983,200.947571 
	C275.615479,200.991791 275.821411,201.005707 276.018280,201.463745 
	C276.452209,203.865845 276.686432,207.428589 277.372589,207.517853 
	C281.417297,208.044113 285.682220,208.273422 289.600891,207.392548 
	C290.581451,207.172119 290.873962,202.511826 290.941833,199.878159 
	C291.119171,192.998245 290.999786,192.995163 283.715698,192.987854 
	C283.197357,192.947647 282.990265,192.928757 282.885315,192.478806 
	C283.114502,189.833725 283.241577,187.619720 283.393616,184.970627 
	C286.137665,184.970627 288.532501,184.970627 291.201874,184.984589 
	C291.659607,185.006332 291.842743,185.014099 292.025848,185.021851 
z"/>
<path fill="#E4E5E6" opacity="1.000000" stroke="none" 
	d="
M32.344475,333.948669 
	C32.273426,331.662140 32.202377,329.375580 32.557144,326.588531 
	C35.226570,326.088013 37.470181,326.088013 39.687576,326.088013 
	C39.687576,323.138000 39.687576,320.770874 39.687576,318.409180 
	C36.942154,318.190247 34.510777,317.996368 32.112858,317.370789 
	C32.158306,314.618896 32.170292,312.298676 32.618023,309.990112 
	C35.163502,310.001801 37.273239,310.001801 39.992310,310.001801 
	C39.992310,307.277283 39.992310,305.165314 40.427868,302.955750 
	C43.238052,302.917053 45.612682,302.975922 47.996765,303.485718 
	C48.006218,306.197418 48.006218,308.458191 48.006218,310.821106 
	C50.891079,310.966797 53.277103,311.087280 55.665546,311.207916 
	C55.822201,313.767426 55.948742,315.834930 56.066174,317.753571 
	C71.933548,317.753571 87.415573,317.753571 103.195175,317.753571 
	C103.195175,315.084137 103.195175,312.817993 103.195175,310.066345 
	C105.771492,310.066345 108.052399,310.066345 110.757797,310.028046 
	C113.749588,309.967743 116.316872,309.945770 118.924103,310.368378 
	C118.971535,313.187042 118.979027,315.561127 118.643768,318.161255 
	C118.524117,320.983276 118.747208,323.579285 118.978958,326.612396 
	C119.000145,334.083130 119.000153,334.082611 112.010925,333.998169 
	C111.345879,333.990143 110.680679,333.994415 109.562836,333.995422 
	C107.175385,333.997864 105.240646,333.997864 103.187790,333.997864 
	C103.029999,331.149261 102.897797,328.762665 102.746918,326.038788 
	C86.894653,326.038788 71.487015,326.038788 55.627846,326.022339 
	C46.999683,326.204193 48.252659,325.265015 47.963253,332.962219 
	C47.951088,333.285675 47.961967,333.609985 47.968204,333.963074 
	C47.974300,333.992249 47.922913,333.962067 47.461823,333.962738 
	C42.115314,333.958496 37.229897,333.953583 32.344475,333.948669 
z"/>
<path fill="#0E0708" opacity="1.000000" stroke="none" 
	d="
M109.957222,209.041962 
	C108.461182,209.026550 106.958649,208.915680 105.470543,209.016861 
	C102.889778,209.192322 101.699623,208.067856 102.016663,205.513458 
	C102.444153,202.069046 101.088341,200.532059 97.552025,200.983887 
	C94.074257,201.428223 93.968140,199.157608 93.976486,196.587433 
	C94.025650,181.459335 93.858345,166.328842 94.091743,151.204193 
	C94.156456,147.010513 92.848549,145.819763 88.735428,145.908188 
	C79.004196,146.117401 79.000015,145.923172 79.000000,136.294800 
	C78.999985,128.481308 78.998787,120.667816 79.000366,112.854324 
	C79.001755,106.015282 79.003136,106.015282 86.553421,106.005638 
	C87.015694,106.015778 87.042809,106.042999 87.029129,106.506477 
	C87.010040,115.898834 87.112595,124.829781 86.941681,133.755493 
	C86.880432,136.953842 87.875511,138.120285 91.167450,138.092590 
	C94.336456,138.065933 95.095657,136.769974 95.035583,133.906265 
	C94.896881,127.295219 94.992416,120.679260 95.439590,114.084709 
	C98.272903,114.066315 100.659584,114.028503 103.038773,114.459892 
	C103.031296,143.349655 103.031296,171.770203 103.031296,200.737991 
	C105.773460,200.737991 107.903542,200.737991 110.093155,201.187286 
	C110.224525,203.967010 110.296364,206.297470 110.265526,208.731506 
	C110.162857,208.835098 109.957222,209.041977 109.957222,209.041962 
z"/>
<path fill="#110A0A" opacity="1.000000" stroke="none" 
	d="
M297.992798,319.008759 
	C291.005524,318.971893 291.005463,318.971893 291.002594,312.044830 
	C291.001984,310.547852 290.975952,309.050323 291.008118,307.554047 
	C291.060181,305.132538 291.240295,302.938934 287.598236,302.920471 
	C284.141357,302.902924 283.942047,304.746704 283.970428,307.358795 
	C284.049866,314.676453 283.883270,321.998138 284.049438,329.312897 
	C284.122681,332.538055 283.469452,334.520569 279.712616,334.011902 
	C276.906769,333.632019 275.635529,334.970245 276.012024,337.744202 
	C276.527740,341.543732 274.466736,342.149231 271.280914,342.044556 
	C265.964081,341.869843 260.632019,341.853210 255.316772,342.049988 
	C252.138779,342.167603 250.556732,341.191620 250.999603,337.841858 
	C251.421494,334.650970 249.749466,333.657532 246.883347,334.001312 
	C243.731369,334.379364 242.812378,332.832275 242.964539,329.907867 
	C243.137131,326.590271 243.003891,323.256714 243.216400,319.362183 
	C243.702835,318.613922 243.888657,318.367432 244.435623,318.082306 
	C247.139893,318.109894 249.395157,318.109894 252.209656,318.109894 
	C252.209656,323.739075 252.209656,328.630493 252.209656,333.568787 
	C260.153931,333.568787 267.523376,333.568787 275.124176,333.568787 
	C275.124176,321.848755 275.304749,310.544952 275.028656,299.252380 
	C274.928711,295.164703 276.343140,294.079895 280.170532,294.251160 
	C286.313080,294.526001 292.475098,294.364716 298.703979,294.552002 
	C298.779022,294.716278 299.020477,294.984863 298.971252,295.452484 
	C298.925812,303.286224 298.929596,310.652374 298.725281,318.128662 
	C298.263794,318.441986 298.089020,318.698608 297.992798,319.008759 
z"/>
<path fill="#060707" opacity="1.000000" stroke="none" 
	d="
M110.333298,310.066345 
	C108.052399,310.066345 105.771492,310.066345 103.195175,310.066345 
	C103.195175,312.817993 103.195175,315.084137 103.195175,317.753571 
	C87.415573,317.753571 71.933548,317.753571 56.066174,317.753571 
	C55.948742,315.834930 55.822201,313.767426 55.665546,311.207916 
	C53.277103,311.087280 50.891079,310.966797 48.006218,310.821106 
	C48.006218,308.458191 48.006218,306.197418 48.013992,303.217957 
	C48.035358,302.320801 48.048954,302.142426 48.062546,301.964081 
	C49.557240,301.977570 51.058399,302.085510 52.545189,301.983643 
	C55.136536,301.806122 56.326744,302.964874 55.977310,305.497009 
	C55.422562,309.516937 57.522526,310.108246 60.956223,310.062561 
	C73.078651,309.901276 85.205475,309.916992 97.328491,310.054871 
	C100.569458,310.091736 102.514122,309.444672 102.014206,305.711334 
	C101.639008,302.909454 102.969337,301.668427 105.744026,302.008484 
	C108.967506,302.403656 110.433128,301.087891 110.004341,297.800293 
	C109.583260,294.571869 111.333069,293.775543 114.162270,293.974335 
	C116.145531,294.113678 118.146545,293.999420 120.139626,294.000183 
	C126.979980,294.002747 126.979980,294.003052 126.661240,301.571594 
	C126.080727,302.112854 125.847092,302.156555 125.242317,302.294067 
	C122.905296,302.545990 120.939415,302.704071 118.536942,302.726471 
	C115.676575,302.590790 113.252808,302.590790 110.677887,302.590790 
	C110.545959,305.452759 110.439629,307.759552 110.333298,310.066345 
z"/>
<path fill="#0E0708" opacity="1.000000" stroke="none" 
	d="
M87.002014,106.002090 
	C86.992287,99.693459 86.995300,93.398521 87.001259,87.103577 
	C87.002045,86.275452 86.680450,84.994591 87.082909,84.694664 
	C89.257652,83.074036 92.959167,82.125168 93.593254,80.135078 
	C94.557983,77.107262 94.296005,74.717842 98.685966,74.894165 
	C107.451363,75.246246 116.241249,74.988518 125.598045,75.075676 
	C126.175064,75.168732 126.398262,75.384285 126.369156,75.797447 
	C126.234039,78.480827 126.128021,80.751038 126.019073,83.036133 
	C126.016144,83.051018 126.045273,83.059555 125.602188,82.990440 
	C123.196487,82.921326 121.233879,82.921326 118.582306,82.921326 
	C118.736115,85.897339 118.867996,88.449242 118.928963,91.422028 
	C118.850685,93.827545 118.843330,95.812195 118.421829,97.945663 
	C115.670990,98.079620 113.334290,98.064751 110.971695,97.580254 
	C110.945793,92.530655 110.945793,87.950684 110.945793,83.320618 
	C105.166626,83.320618 100.284821,83.320618 94.747139,83.320618 
	C94.747139,91.073029 94.747139,98.490578 94.326920,105.940308 
	C91.618744,105.995995 89.330772,106.019493 87.042809,106.042999 
	C87.042809,106.042999 87.015694,106.015778 87.002014,106.002090 
z"/>
<path fill="#10090A" opacity="1.000000" stroke="none" 
	d="
M213.019348,310.937378 
	C213.012283,316.191132 212.988251,321.444916 213.001984,326.698639 
	C213.025040,335.527893 213.126862,333.721436 205.526733,334.048279 
	C205.027832,334.039764 204.913727,333.910950 204.949631,333.449280 
	C205.012421,320.350647 205.039307,307.713684 205.501862,294.992401 
	C215.821381,294.908112 225.705261,294.908112 235.913116,294.908112 
	C235.913116,297.436066 235.913116,299.899933 235.920868,302.501892 
	C235.928604,302.639954 236.023224,302.899902 235.553680,302.874695 
	C227.721298,302.849487 220.358444,302.849487 213.019348,302.849487 
	C213.019348,306.002411 213.019348,308.469879 213.019348,310.937378 
z"/>
<path fill="#0E0708" opacity="1.000000" stroke="none" 
	d="
M164.984589,50.955486 
	C164.989731,49.961407 165.113983,48.950844 164.979080,47.976147 
	C164.439941,44.080914 165.975632,42.849415 169.952698,42.910904 
	C184.529358,43.136272 199.111618,42.999645 213.691757,43.000179 
	C220.987671,43.000450 220.987671,43.001305 220.796829,50.619461 
	C220.309052,51.288425 220.123077,51.509556 219.562775,51.820240 
	C204.598251,51.829945 190.104309,51.793877 175.610840,51.859631 
	C172.144577,51.875355 168.679840,52.230324 165.156189,52.060936 
	C165.060165,51.446907 165.022385,51.201199 164.984589,50.955486 
z"/>
<path fill="#0E0708" opacity="1.000000" stroke="none" 
	d="
M307.014618,138.014862 
	C307.009735,148.918381 307.004150,159.821884 307.000214,170.725403 
	C306.997589,177.982147 306.998688,177.982147 299.441650,177.705582 
	C298.945770,177.201050 298.922943,176.997574 298.885162,176.341400 
	C298.870178,168.531113 298.870178,161.173523 298.870178,153.679337 
	C290.802643,153.679337 283.256409,153.679337 275.528442,153.289398 
	C275.213959,150.603134 275.081238,148.306793 275.421692,146.008179 
	C283.389282,146.005890 290.883728,146.005890 298.647888,146.005890 
	C298.800568,142.862473 298.918304,140.439011 299.476166,138.007629 
	C302.266083,137.988373 304.615845,137.977036 306.977722,137.977905 
	C306.989838,137.990128 307.014618,138.014862 307.014618,138.014862 
z"/>
<path fill="#0A0B0B" opacity="1.000000" stroke="none" 
	d="
M56.079376,326.038788 
	C71.487015,326.038788 86.894653,326.038788 102.746918,326.038788 
	C102.897797,328.762665 103.029999,331.149261 103.187790,333.997864 
	C105.240646,333.997864 107.175385,333.997864 109.744797,334.387085 
	C110.391815,337.033478 110.404144,339.290649 110.302315,341.683563 
	C110.188156,341.819336 109.947960,342.080444 109.947960,342.080444 
	C108.448875,342.050873 106.942635,341.914917 105.452271,342.015076 
	C102.834381,342.191040 101.676147,340.999664 102.026253,338.475250 
	C102.592865,334.389648 100.387749,333.897736 96.994835,333.937836 
	C83.665901,334.095337 70.334274,334.024933 56.455193,333.984314 
	C55.906742,333.929443 55.748840,333.735016 55.770882,333.309845 
	C55.888412,330.602722 55.983894,328.320740 56.079376,326.038788 
z"/>
<path fill="#0E0708" opacity="1.000000" stroke="none" 
	d="
M268.032990,74.981529 
	C273.835052,74.987686 279.637146,74.993889 285.439209,74.999939 
	C286.268066,75.000809 287.105011,74.928314 287.923859,75.019089 
	C289.045349,75.143425 290.153107,75.391495 291.266754,75.586533 
	C289.465485,82.306419 298.574036,80.633774 298.842804,85.241432 
	C299.052521,88.836517 299.883240,90.530861 303.667938,90.026176 
	C306.352692,89.668167 307.087738,91.191536 307.023621,93.617638 
	C306.922882,97.427704 307.001465,101.242508 306.993683,105.536041 
	C306.983246,106.016769 306.955688,106.044434 306.520569,106.035484 
	C303.761749,106.003212 301.438049,105.979897 299.076477,105.523643 
	C299.024841,103.061249 299.011108,101.031784 299.007568,98.554459 
	C298.910278,90.200638 299.790009,91.098145 292.011139,90.980286 
	C291.686676,90.975372 291.362122,90.975342 291.019958,90.987564 
	C291.002258,91.002106 291.025635,90.963524 291.021362,90.518631 
	C290.996887,82.923698 290.996887,82.923271 283.879211,83.021599 
	C283.552338,83.026123 283.225739,83.050468 282.438965,83.038376 
	C276.947327,83.001198 271.915741,82.991211 266.975830,82.550262 
	C267.138916,80.066208 267.210358,78.013138 267.460022,75.844177 
	C267.834473,75.513535 267.966034,75.264610 268.032990,74.981529 
z"/>
<path fill="#0C0D0D" opacity="1.000000" stroke="none" 
	d="
M125.613464,302.200226 
	C125.847092,302.156555 126.080727,302.112854 126.667625,302.018921 
	C129.056519,301.981354 131.092163,301.994019 133.564819,302.008240 
	C134.225159,304.757385 134.448471,307.505005 134.832870,310.620789 
	C134.993546,312.314423 134.886963,313.650146 135.014267,314.963226 
	C135.300385,317.914398 134.197906,319.332977 131.091400,319.012787 
	C128.709732,318.767273 126.976295,319.144135 126.920433,322.327118 
	C126.861443,325.688263 128.561905,326.271423 131.247269,326.001678 
	C134.013992,325.723724 135.239777,326.886230 135.015579,329.704529 
	C134.884598,331.350861 134.994492,333.016235 134.994293,334.673065 
	C134.993423,341.964966 134.993210,341.964966 127.170303,341.998108 
	C126.221413,341.965088 126.021263,341.943787 125.935349,341.471710 
	C126.049591,336.144135 126.049591,331.267395 126.049591,326.175293 
	C123.467453,326.175293 121.218880,326.175293 118.970306,326.175293 
	C118.747208,323.579285 118.524117,320.983276 119.094894,318.268677 
	C121.824928,318.150055 123.761070,318.150055 126.392433,318.150055 
	C126.120514,312.582397 125.866989,307.391327 125.613464,302.200226 
z"/>
<path fill="#130C0C" opacity="1.000000" stroke="none" 
	d="
M164.518921,50.973804 
	C165.022385,51.201199 165.060165,51.446907 165.270142,52.490768 
	C165.442337,55.212566 165.442337,57.136211 165.442337,59.492157 
	C159.995697,59.492157 155.225647,59.492157 150.268677,59.492157 
	C150.071808,62.301041 149.904831,64.683434 149.723709,67.267532 
	C144.270081,67.267532 139.282379,67.267532 134.186707,67.182755 
	C134.078735,67.097969 133.875107,66.913834 133.875092,66.913834 
	C133.915466,66.256012 134.076202,65.579407 133.977005,64.943359 
	C133.239456,60.214268 135.145691,58.250069 139.928619,58.972141 
	C141.379074,59.191109 142.902573,58.884727 144.371643,59.030445 
	C147.600708,59.350735 149.521454,58.432514 149.015976,54.739937 
	C148.572495,51.500286 150.410538,50.866165 153.175415,50.972107 
	C156.796295,51.110851 160.426849,50.997204 164.518921,50.973804 
z"/>
<path fill="#0E0708" opacity="1.000000" stroke="none" 
	d="
M306.997070,106.002815 
	C307.341492,105.991623 307.672028,105.995926 308.002594,105.996918 
	C314.997040,106.017891 314.998016,106.017822 314.999695,112.873199 
	C315.001129,118.823364 315.000488,124.773529 314.999847,130.723694 
	C314.999084,137.985565 314.998688,137.985565 307.462250,138.009430 
	C307.014618,138.014862 306.989838,137.990128 306.987000,137.513306 
	C306.974701,126.705811 306.965210,116.375122 306.955688,106.044434 
	C306.955688,106.044434 306.983246,106.016769 306.997070,106.002815 
z"/>
<path fill="#251D1A" opacity="1.000000" stroke="none" 
	d="
M220.033539,51.811783 
	C220.123077,51.509556 220.309052,51.288425 220.798599,51.068020 
	C226.251144,51.009224 231.496521,51.048786 236.741913,51.048309 
	C245.409760,51.047520 243.696884,50.808681 244.012054,58.823486 
	C243.988403,59.772648 243.948700,59.972904 243.468491,60.015411 
	C235.652039,59.857655 228.276123,59.857655 220.715088,59.857655 
	C220.444290,56.660938 220.238922,54.236359 220.033539,51.811783 
z"/>
<path fill="#0E0708" opacity="1.000000" stroke="none" 
	d="
M205.089798,334.099426 
	C205.100403,335.488373 204.897736,336.832642 205.027695,338.143951 
	C205.344147,341.337006 203.779144,342.151642 200.883408,342.041473 
	C196.561768,341.877075 192.229202,342.000824 187.901291,341.999695 
	C181.032333,341.997894 181.032333,341.997101 181.022568,334.438843 
	C181.062943,333.937653 181.170639,333.830261 181.606812,333.881073 
	C184.405609,333.865997 186.768250,333.800110 189.587341,333.777710 
	C195.000443,333.851074 199.957077,333.881012 204.913727,333.910950 
	C204.913727,333.910950 205.027832,334.039764 205.089798,334.099426 
z"/>
<path fill="#0E0708" opacity="1.000000" stroke="none" 
	d="
M174.452805,334.005615 
	C173.842911,334.005371 173.667007,334.000977 173.297745,333.528687 
	C173.109055,325.575836 173.113724,318.090942 173.087524,310.482330 
	C173.056625,310.358612 172.968872,310.119141 173.413849,310.112579 
	C176.220413,310.091766 178.582016,310.077515 180.971802,310.031921 
	C181.000000,310.000641 180.937027,310.056458 180.967438,310.520844 
	C181.055450,318.600250 181.113052,326.215240 181.170639,333.830261 
	C181.170639,333.830261 181.062943,333.937653 181.008240,333.992706 
	C178.931290,334.032318 176.909042,334.016907 174.452805,334.005615 
z"/>
<path fill="#D0C6A3" opacity="1.000000" stroke="none" 
	d="
M213.485962,310.965759 
	C213.019348,308.469879 213.019348,306.002411 213.019348,302.849487 
	C220.358444,302.849487 227.721298,302.849487 235.527390,303.319153 
	C235.966019,306.143829 235.961411,308.498840 235.956787,310.853882 
	C228.622055,310.900635 221.287308,310.947388 213.485962,310.965759 
z"/>
<path fill="#0A0B0B" opacity="1.000000" stroke="none" 
	d="
M48.038982,301.518860 
	C48.048954,302.142426 48.035358,302.320801 48.004536,302.766968 
	C45.612682,302.975922 43.238052,302.917053 39.992943,302.860718 
	C36.753258,302.922455 34.384060,302.981628 31.995623,302.770477 
	C31.961411,302.320068 31.946438,302.140015 31.931467,301.959961 
	C32.369194,293.437897 30.126282,294.024323 40.294937,294.003693 
	C40.459148,294.003357 40.623363,294.003632 40.787575,294.003662 
	C47.962666,294.005035 47.962666,294.005035 48.038982,301.518860 
z"/>
<path fill="#160F0E" opacity="1.000000" stroke="none" 
	d="
M297.999329,319.475037 
	C298.089020,318.698608 298.263794,318.441986 299.167053,318.153595 
	C302.153381,318.101593 304.489807,318.134888 306.911865,318.085297 
	C306.997559,318.002441 306.832458,318.174408 306.836365,318.629211 
	C306.953308,324.028259 307.066345,328.972443 307.179382,333.916656 
	C306.976105,333.939392 306.772858,333.962097 306.263702,334.013611 
	C297.353424,333.681366 298.046143,335.696960 298.011536,325.808807 
	C298.004700,323.852997 298.007477,321.897125 297.999329,319.475037 
z"/>
<path fill="#060707" opacity="1.000000" stroke="none" 
	d="
M31.489023,301.974304 
	C31.946438,302.140015 31.961411,302.320068 31.987648,303.204895 
	C32.060036,305.932587 32.121159,307.955505 32.182281,309.978455 
	C32.170292,312.298676 32.158306,314.618896 32.078075,317.676300 
	C31.992447,318.617737 31.975060,318.821960 31.957674,319.026215 
	C23.241484,318.802734 24.054859,320.349640 24.000511,311.202057 
	C23.996609,310.545349 23.999889,309.888550 24.000015,309.231812 
	C24.001390,302.024017 24.001402,302.024017 31.489023,301.974304 
z"/>
<path fill="#1E1614" opacity="1.000000" stroke="none" 
	d="
M235.979263,311.309265 
	C235.961411,308.498840 235.966019,306.143829 235.996918,303.344360 
	C236.023224,302.899902 235.928604,302.639954 236.370819,302.453094 
	C239.034470,302.266235 241.255936,302.266235 243.986633,302.266235 
	C243.986633,307.996979 243.986633,313.025848 243.986633,318.054718 
	C243.888657,318.367432 243.702835,318.613922 243.216522,318.894653 
	C235.058441,318.865417 236.165756,319.700897 235.979263,311.309265 
z"/>
<path fill="#060707" opacity="1.000000" stroke="none" 
	d="
M125.821106,341.922485 
	C126.021263,341.943787 126.221413,341.965088 126.722778,342.011169 
	C126.806061,350.755981 128.344986,349.945984 119.208786,349.999481 
	C118.552116,350.003326 117.895409,350.000092 117.238716,349.999969 
	C110.028107,349.998657 110.028107,349.998657 109.966675,342.520935 
	C109.947960,342.080444 110.188156,341.819336 110.730476,341.786926 
	C116.122231,341.810486 120.971672,341.866486 125.821106,341.922485 
z"/>
<path fill="#0E0708" opacity="1.000000" stroke="none" 
	d="
M243.909012,60.173164 
	C243.948700,59.972904 243.988403,59.772648 244.058716,59.267269 
	C247.082245,58.974766 250.075150,58.995106 253.068085,58.998447 
	C259.967285,59.006149 259.967285,59.002796 259.732025,66.491089 
	C259.248169,67.002602 259.049927,67.037071 258.395447,67.110260 
	C253.328781,67.148972 248.718384,67.148972 243.909012,67.148972 
	C243.909012,64.455559 243.909012,62.314362 243.909012,60.173164 
z"/>
<path fill="#060707" opacity="1.000000" stroke="none" 
	d="
M47.849739,341.858917 
	C47.880341,342.190369 47.928314,342.521301 47.938988,342.853394 
	C48.168499,349.996460 48.167694,349.996521 41.181274,349.999969 
	C40.515480,350.000305 39.849682,350.000153 39.183887,349.999969 
	C31.957535,349.998260 31.957535,349.998230 32.520004,342.328461 
	C37.951061,341.912842 42.900398,341.885895 47.849739,341.858917 
z"/>
<path fill="#C8C8C9" opacity="1.000000" stroke="none" 
	d="
M47.863605,341.885803 
	C42.900398,341.885895 37.951061,341.912842 32.545990,341.866943 
	C32.109402,339.464600 32.128551,337.135101 32.246086,334.377136 
	C37.229897,333.953583 42.115314,333.958496 47.435444,334.403839 
	C47.855583,337.190063 47.841011,339.535828 47.826439,341.881622 
	C47.826439,341.881622 47.877472,341.912720 47.863605,341.885803 
z"/>
<path fill="#1E1614" opacity="1.000000" stroke="none" 
	d="
M258.851715,67.071541 
	C259.049927,67.037071 259.248169,67.002602 259.746796,66.933884 
	C260.368439,66.930824 260.689178,66.981606 261.011047,66.990349 
	C268.337341,67.189407 267.929535,65.761909 268.010925,74.536865 
	C267.966034,75.264610 267.834473,75.513535 267.100067,75.557556 
	C264.313568,75.265152 262.065308,75.143486 259.763672,75.018936 
	C259.438049,72.181366 259.144867,69.626457 258.851715,67.071541 
z"/>
<path fill="#0E0708" opacity="1.000000" stroke="none" 
	d="
M118.958580,216.522766 
	C118.760483,216.682068 118.544693,216.811966 118.130463,216.972351 
	C117.626717,217.024323 117.303749,217.011505 116.980698,217.009186 
	C110.023033,216.959137 110.023033,216.959335 109.972725,209.484802 
	C109.957222,209.041977 110.162857,208.835098 110.675056,208.783630 
	C113.696037,208.954651 116.204819,209.177155 118.701675,209.835144 
	C118.779358,212.354675 118.868973,214.438721 118.958580,216.522766 
z"/>
<path fill="#160F0E" opacity="1.000000" stroke="none" 
	d="
M298.900146,176.794113 
	C298.922943,176.997574 298.945770,177.201050 298.993469,177.710846 
	C298.945526,184.943710 298.945526,184.943710 292.464294,185.010132 
	C291.842743,185.014099 291.659607,185.006332 291.267822,184.546112 
	C291.059204,181.851074 291.059204,179.608490 291.059204,177.391556 
	C294.273773,177.146622 296.586975,176.970367 298.900146,176.794113 
z"/>
<path fill="#060707" opacity="1.000000" stroke="none" 
	d="
M48.284706,341.916107 
	C47.841011,339.535828 47.855583,337.190063 47.896530,334.403168 
	C47.922913,333.962067 47.974300,333.992249 48.403324,333.936707 
	C51.137844,333.832428 53.443344,333.783722 55.748840,333.735016 
	C55.748840,333.735016 55.906742,333.929443 55.992939,334.021851 
	C56.059799,334.439514 56.028355,334.764526 56.022903,335.089996 
	C55.906265,342.058960 55.906830,342.058960 48.284706,341.916107 
z"/>
<path fill="#0C0D0D" opacity="1.000000" stroke="none" 
	d="
M31.974926,319.474182 
	C31.975060,318.821960 31.992447,318.617737 32.044617,318.107971 
	C34.510777,317.996368 36.942154,318.190247 39.687576,318.409180 
	C39.687576,320.770874 39.687576,323.138000 39.687576,326.088013 
	C37.470181,326.088013 35.226570,326.088013 32.540558,326.160950 
	C32.062832,324.129974 32.027504,322.026093 31.974926,319.474182 
z"/>
<path fill="#0E0708" opacity="1.000000" stroke="none" 
	d="
M126.063461,75.060951 
	C125.963791,74.620193 125.983620,74.287277 125.986488,73.954224 
	C126.054260,66.084625 125.397209,67.133301 133.441040,66.944580 
	C133.875107,66.913834 134.078735,67.097969 134.155472,67.607857 
	C134.150848,70.408173 134.069489,72.698601 133.559586,75.030327 
	C130.886780,75.175842 128.642517,75.280067 126.398262,75.384293 
	C126.398262,75.384285 126.175064,75.168732 126.063461,75.060951 
z"/>
<path fill="#D0C6A3" opacity="1.000000" stroke="none" 
	d="
M133.988129,74.989029 
	C134.069489,72.698601 134.150848,70.408173 134.263428,67.692642 
	C139.282379,67.267532 144.270081,67.267532 149.723709,67.267532 
	C149.904831,64.683434 150.071808,62.301041 150.268677,59.492157 
	C155.225647,59.492157 159.995697,59.492157 165.442337,59.492157 
	C165.442337,57.136211 165.442337,55.212566 165.328369,52.859093 
	C168.679840,52.230324 172.144577,51.875355 175.610840,51.859631 
	C190.104309,51.793877 204.598251,51.829945 219.562775,51.820240 
	C220.238922,54.236359 220.444290,56.660938 220.715088,59.857655 
	C228.276123,59.857655 235.652039,59.857655 243.468491,60.015411 
	C243.909012,62.314362 243.909012,64.455559 243.909012,67.148972 
	C248.718384,67.148972 253.328781,67.148972 258.395447,67.110260 
	C259.144867,69.626457 259.438049,72.181366 259.763672,75.018936 
	C262.065308,75.143486 264.313568,75.265152 266.921814,75.673439 
	C267.210358,78.013138 267.138916,80.066208 267.014313,82.555908 
	C266.961182,82.992523 266.972046,82.915459 266.529358,82.871376 
	C263.995667,82.827293 261.904633,82.827293 259.813354,82.827293 
	C259.813354,100.489960 259.809174,117.530823 259.824432,134.571671 
	C259.825287,135.522491 259.986969,136.473175 260.121765,137.949615 
	C262.637970,137.949615 264.921692,137.949615 267.188721,138.394547 
	C267.172058,141.046295 267.172058,143.253113 267.172058,145.603287 
	C270.200378,145.779114 272.598938,145.918365 274.999939,146.030823 
	C275.002380,146.004028 274.948517,146.010452 274.948517,146.010452 
	C275.081238,148.306793 275.213959,150.603134 275.561401,153.687500 
	C275.776093,164.516678 275.776093,174.557816 275.776093,184.577240 
	C272.054840,184.936813 269.808655,185.153854 267.031158,185.422241 
	C267.031158,190.814819 267.031158,195.925735 267.031158,201.036652 
	C267.031158,201.036652 267.000000,201.000610 266.571167,200.981567 
	C264.223877,200.962540 262.305420,200.962540 259.958069,200.962540 
	C259.958069,203.732208 259.958069,205.839706 259.958069,207.947205 
	C259.958069,207.947205 259.981354,207.953110 259.531860,207.954773 
	C256.879669,208.106003 254.676971,208.255554 251.980240,208.438660 
	C251.980240,211.196915 251.980240,213.584244 251.980240,215.971558 
	C249.514008,216.087601 247.047791,216.203644 244.269028,216.334396 
	C244.097778,218.889709 243.936371,221.298355 243.765259,223.851471 
	C207.175995,223.851471 170.788391,223.851471 134.030594,223.851471 
	C134.030594,221.285355 134.030594,219.019836 134.030594,216.142014 
	C131.734650,216.142014 129.799194,216.142014 127.388443,215.653351 
	C126.844360,208.002960 126.844360,208.002960 118.824875,207.735825 
	C119.339432,202.511154 118.267502,199.271591 112.401314,200.227798 
	C111.678230,200.345657 110.854881,199.848419 110.104782,199.190979 
	C110.135597,186.747742 110.136497,174.749771 110.144730,162.751785 
	C110.150505,154.338959 110.154976,154.338959 118.477554,153.755432 
	C118.644829,153.844803 118.948860,154.071609 118.912315,154.516205 
	C118.970528,156.875580 119.065285,158.790359 119.174591,160.999191 
	C124.499046,160.999191 129.281372,160.999191 134.049805,161.450623 
	C134.035934,164.171158 134.035934,166.440277 134.035934,168.782745 
	C131.287964,169.070557 129.208954,169.288300 127.066536,169.512695 
	C127.066536,177.440475 127.066536,184.990387 127.066536,192.683411 
	C129.479721,192.916702 131.553848,193.117218 134.144684,193.367676 
	C134.144684,198.390076 134.144684,203.127731 134.144684,208.358063 
	C139.615829,208.358063 144.540573,208.358063 149.645416,208.358063 
	C149.916672,211.231110 150.142258,213.620392 150.364014,215.968933 
	C160.726639,215.968933 170.634201,215.968933 180.776245,215.968933 
	C181.025986,213.286652 181.248932,210.892227 181.526489,207.911163 
	C186.754150,207.911163 191.634354,207.911163 197.114532,207.911163 
	C197.114532,202.568314 197.114532,197.850540 197.114532,193.169449 
	C199.994507,192.919693 202.250687,192.724045 204.533981,192.526031 
	C204.533981,184.553802 204.533981,177.010986 204.533981,169.411591 
	C201.828110,169.183304 199.578110,168.993484 196.955765,168.772232 
	C196.955765,165.924210 196.955765,163.454102 197.415787,161.034729 
	C202.740555,161.085449 207.605286,161.085449 212.579956,161.085449 
	C212.834122,158.423218 213.082733,155.819077 213.760437,153.194489 
	C215.964035,153.094330 217.738541,153.014618 219.771851,152.923264 
	C219.771851,145.188507 219.771851,137.859695 219.771851,130.243073 
	C217.307648,130.118134 215.195496,130.011063 213.007828,129.479614 
	C212.234741,126.665604 214.565216,122.744301 210.246384,122.219391 
	C206.069794,121.711769 201.783203,122.109398 196.995560,122.109398 
	C196.995560,125.129730 196.995560,127.560516 196.546204,130.016693 
	C193.869522,130.042084 191.642197,130.042084 188.988327,130.042084 
	C188.988327,138.335541 188.988327,145.882126 189.002625,153.426361 
	C189.016907,153.423981 189.048401,153.419876 188.587006,153.510712 
	C172.734329,153.577805 157.343033,153.554062 141.965256,153.544006 
	C141.978760,153.557678 142.007660,153.570435 142.028503,153.066345 
	C142.049347,145.201401 142.049347,137.840561 142.049347,129.991318 
	C138.881348,129.991318 136.445236,129.991318 134.007935,129.988831 
	C134.006744,129.986343 134.019379,129.977188 134.041916,129.529175 
	C133.956238,126.850136 133.848007,124.619095 133.723526,122.052902 
	C130.673416,122.052902 128.206360,122.052536 125.739296,122.052963 
	C117.923630,122.054337 117.923630,122.054451 117.798996,130.043793 
	C109.550636,129.966171 109.650505,129.979401 110.691772,122.115959 
	C111.052956,119.388351 110.783813,116.577286 110.822769,113.380447 
	C110.894844,110.970558 110.946724,108.984573 111.426590,106.959747 
	C114.129677,106.952744 116.404770,106.984581 118.662643,107.471405 
	C118.645424,109.836342 118.645424,111.746292 118.645424,113.797134 
	C121.508385,113.797134 123.707329,113.797134 126.051453,113.797134 
	C126.051453,111.390022 126.051453,109.336678 126.051453,106.679855 
	C123.510307,106.679855 121.263390,106.679855 118.997299,106.243301 
	C118.930740,103.136780 118.883362,100.466812 118.835983,97.796844 
	C118.843330,95.812195 118.850685,93.827545 119.375275,91.426178 
	C121.802650,91.009453 123.712807,91.009453 126.045273,91.009453 
	C126.045273,87.901016 126.045273,85.480286 126.045273,83.059555 
	C126.045273,83.059555 126.016144,83.051018 126.464211,83.046890 
	C129.120621,82.890465 131.328949,82.738174 133.988113,82.554787 
	C133.988113,79.781601 133.988113,77.385315 133.988129,74.989029 
M205.015549,107.443390 
	C205.015549,109.540871 205.015549,111.638344 205.015549,113.864738 
	C207.847122,113.864738 210.081390,113.864738 212.592133,113.864738 
	C212.592133,111.359421 212.592133,109.139717 212.592133,106.522423 
	C209.897491,106.522423 207.458755,106.522423 205.054474,105.565155 
	C205.054474,103.313904 205.054474,101.062653 205.054474,98.568817 
	C202.116943,98.568817 199.754974,98.568817 197.360931,98.568817 
	C197.360931,101.419563 197.360931,103.917061 197.360931,106.824966 
	C200.224014,106.683739 202.656876,106.563736 205.015549,107.443390 
M133.306808,106.059715 
	C133.654358,103.727814 134.001907,101.395920 134.407990,98.671295 
	C131.307266,98.671295 128.940964,98.671295 126.551872,98.671295 
	C126.551872,101.366852 126.551872,103.716576 126.551872,106.290436 
	C128.777466,106.290436 130.583023,106.290436 133.306808,106.059715 
z"/>
<path fill="#D0C6A3" opacity="1.000000" stroke="none" 
	d="
M204.949631,333.449280 
	C199.957077,333.881012 195.000443,333.851074 189.558807,333.327515 
	C189.073822,325.446503 189.073822,318.059174 189.073822,310.056458 
	C185.836716,310.056458 183.386871,310.056458 180.937027,310.056458 
	C180.937027,310.056458 181.000000,310.000641 181.012665,309.583801 
	C181.025314,307.279663 181.025314,305.392365 181.025314,302.835632 
	C178.044479,302.835632 175.662994,302.835632 173.159927,302.676880 
	C173.038345,302.518097 172.869766,302.155396 172.936218,301.703522 
	C173.002670,299.316803 173.002670,297.381989 173.002670,295.002808 
	C170.243881,295.002808 168.119614,295.002808 165.997665,295.001770 
	C166.000000,295.000763 165.993713,295.008545 165.996048,294.558777 
	C165.868088,291.858307 165.737778,289.607635 165.575851,286.810547 
	C160.244125,286.810547 155.359421,286.810547 150.350815,286.810547 
	C150.089905,284.006409 149.881104,281.762268 149.620377,278.960144 
	C146.929840,278.960144 144.488831,278.960144 142.047821,278.960144 
	C142.047821,278.960144 141.998306,278.997345 142.030121,278.508606 
	C142.067444,265.393311 142.072968,252.766754 142.078476,240.140213 
	C146.763214,240.103104 151.447968,240.065979 156.605499,240.537872 
	C157.115021,243.308472 157.151749,245.570068 157.135986,248.283401 
	C156.984070,256.083435 156.984116,256.086212 164.165085,255.951630 
	C164.808823,255.939575 165.451294,255.860809 166.531433,255.839890 
	C171.655838,256.736481 173.703781,255.069916 173.123840,250.075073 
	C172.743790,246.802032 173.062943,243.447800 173.068954,240.129929 
	C194.169113,240.069122 215.269257,240.005661 236.369415,239.949463 
	C241.328827,239.936249 246.288284,239.947510 251.565918,239.947510 
	C251.741379,237.267365 251.898697,234.864487 252.073074,232.200882 
	C254.487747,232.065109 256.753662,231.937698 259.258728,231.796844 
	C259.437744,229.397583 259.607635,227.120911 259.808990,224.422531 
	C262.145233,224.272308 264.384857,224.128311 266.933685,223.964432 
	C267.073181,221.560425 267.204834,219.292221 267.392120,216.064743 
	C277.583954,216.064743 287.798370,216.064743 298.484283,216.015015 
	C298.955780,215.965302 298.980469,215.987076 298.974854,216.436493 
	C298.969238,219.122833 298.969238,221.359756 298.969238,223.998779 
	C301.803619,223.998779 303.903656,223.998779 306.029999,224.445190 
	C306.056335,227.141846 306.056335,229.392105 306.056335,231.991104 
	C309.579987,231.991104 312.217987,231.991104 314.856018,231.991104 
	C314.854584,239.359848 314.853149,246.728577 314.877625,255.010147 
	C314.903534,258.149658 314.903534,260.376343 314.903534,263.016022 
	C317.776428,263.016022 319.876770,263.016022 321.977142,263.016022 
	C322.051941,273.272583 322.126709,283.529144 322.173187,294.694946 
	C321.937531,302.743591 321.937561,302.742706 329.032593,302.903473 
	C329.360657,302.910889 329.687836,302.958862 330.015411,302.987915 
	C330.015411,313.163269 330.015411,323.338593 330.015411,333.810242 
	C325.173706,333.810242 320.606903,333.810242 315.527100,333.312622 
	C315.014069,328.068787 315.014069,323.322601 315.014069,318.174408 
	C311.722168,318.174408 309.277313,318.174408 306.832458,318.174408 
	C306.832458,318.174408 306.997559,318.002441 306.949585,317.605896 
	C306.901611,309.978485 306.901611,302.747620 306.901611,294.984863 
	C303.883636,294.984863 301.452057,294.984863 299.020477,294.984863 
	C299.020477,294.984863 298.779022,294.716278 298.793945,294.087524 
	C298.808868,291.401276 298.808868,289.343719 298.808868,286.724640 
	C293.083099,286.724640 288.189880,286.724640 283.290253,286.724640 
	C283.050964,283.901550 282.859833,281.646454 282.639069,279.041870 
	C280.129730,279.041870 277.998138,279.041870 275.868225,278.600891 
	C275.855438,270.486816 275.269775,270.031311 267.024353,271.864716 
	C267.024353,274.161469 267.024353,276.595215 266.577362,279.020386 
	C263.744293,278.998077 261.358185,278.984406 258.983856,278.986084 
	C258.995605,279.001465 259.027924,279.022186 259.023254,278.572693 
	C259.018616,275.899536 259.018616,273.675873 259.018616,271.387634 
	C256.308411,271.387634 254.420792,271.387634 252.007248,271.387634 
	C252.007248,274.133362 252.007248,276.556976 252.001831,279.248108 
	C251.991928,279.694000 251.987411,279.872345 251.539703,280.034668 
	C248.728149,280.003021 246.359787,279.987427 243.985916,279.703766 
	C243.972748,279.257111 243.965088,279.078522 243.953491,278.462372 
	C243.936920,270.212677 243.693451,270.009125 235.972076,271.901855 
	C235.972076,274.189392 235.972076,276.605774 235.988251,279.011810 
	C236.004425,279.001465 236.027924,278.970764 235.587082,278.981812 
	C233.088486,278.984344 231.030716,278.975830 228.984344,278.983521 
	C228.995728,278.999756 229.028748,279.021057 228.980103,278.574890 
	C228.920090,277.636688 228.863327,277.140869 228.904556,276.653320 
	C229.193985,273.230438 229.054214,270.811432 224.220047,270.864044 
	C219.346451,270.917114 220.010101,273.705963 220.031311,276.640167 
	C220.037247,277.459747 219.991364,278.279724 219.981018,279.265198 
	C219.992798,279.430847 220.043518,279.759155 219.599686,279.821045 
	C217.241745,280.020264 215.327637,280.157532 213.315186,280.301880 
	C213.006165,282.694305 212.744095,284.723175 212.486359,286.718506 
	C209.818237,286.954224 207.593460,287.150787 205.066193,287.374084 
	C205.066193,290.207428 205.066193,292.642059 205.066193,295.076691 
	C205.039307,307.713684 205.012421,320.350647 204.949631,333.449280 
z"/>
<path fill="#907F63" opacity="1.000000" stroke="none" 
	d="
M142.083588,279.430420 
	C144.488831,278.960144 146.929840,278.960144 149.620377,278.960144 
	C149.881104,281.762268 150.089905,284.006409 150.350815,286.810547 
	C155.359421,286.810547 160.244125,286.810547 165.575851,286.810547 
	C165.737778,289.607635 165.868088,291.858307 165.543396,294.520996 
	C162.666077,294.933014 160.243744,294.933014 157.627502,294.933014 
	C157.627502,297.800720 157.627502,300.162842 157.627502,302.663757 
	C160.415344,302.858002 162.833282,303.026459 165.489792,303.211548 
	C165.715347,305.654022 165.921906,307.890869 166.172638,310.606049 
	C168.599701,310.606049 170.859055,310.606049 173.118408,310.606049 
	C173.113724,318.090942 173.109055,325.575836 173.033844,333.524109 
	C165.532318,333.987457 158.101288,333.987457 150.147369,333.987457 
	C150.147369,323.618805 150.147369,313.595856 150.147369,303.236816 
	C147.418747,303.001862 145.178482,302.808929 142.119354,302.545532 
	C142.119354,295.007050 142.119354,287.453857 142.083588,279.430420 
z"/>
<path fill="#928164" opacity="1.000000" stroke="none" 
	d="
M267.463074,201.007568 
	C267.031158,195.925735 267.031158,190.814819 267.031158,185.422241 
	C269.808655,185.153854 272.054840,184.936813 275.776093,184.577240 
	C275.776093,174.557816 275.776093,164.516678 275.743134,154.077438 
	C283.256409,153.679337 290.802643,153.679337 298.870178,153.679337 
	C298.870178,161.173523 298.870178,168.531113 298.885162,176.341400 
	C296.586975,176.970367 294.273773,177.146622 291.059204,177.391556 
	C291.059204,179.608490 291.059204,181.851074 290.993256,184.532135 
	C288.532501,184.970627 286.137665,184.970627 283.393616,184.970627 
	C283.241577,187.619720 283.114502,189.833725 282.453644,192.451904 
	C279.749176,192.856094 277.578522,192.856094 275.390381,192.856094 
	C275.148743,196.113937 274.970612,198.515625 274.792480,200.917297 
	C272.493286,200.937698 270.194122,200.958084 267.463074,201.007568 
z"/>
<path fill="#CEC4A2" opacity="1.000000" stroke="none" 
	d="
M298.945526,215.952332 
	C298.908173,213.907349 298.881042,211.875351 299.345520,209.360001 
	C306.454010,208.786621 306.449402,208.786301 306.915649,202.060654 
	C306.948700,201.583572 307.121094,201.116150 307.228668,200.644226 
	C312.120117,200.644226 317.011566,200.644226 322.239807,200.644226 
	C322.425964,203.218094 322.587433,205.450867 322.781830,208.139023 
	C325.040253,208.326660 327.254211,208.510620 329.988159,208.737762 
	C329.988159,210.916946 329.988159,212.995895 329.503571,215.550781 
	C326.805756,216.136398 324.592529,216.246078 322.300781,216.359650 
	C322.300781,219.393066 322.300781,221.828644 322.300781,224.264221 
	C322.300781,224.264221 322.169678,224.034393 321.734863,224.082870 
	C316.460510,224.099960 311.621033,224.068558 306.831879,223.589905 
	C306.963898,216.185547 306.963898,216.186234 299.950378,216.053787 
	C299.626770,216.047668 299.303772,216.010025 298.980469,215.987076 
	C298.980469,215.987076 298.955780,215.965302 298.945526,215.952332 
z"/>
<path fill="#928164" opacity="1.000000" stroke="none" 
	d="
M141.624237,240.088745 
	C142.072968,252.766754 142.067444,265.393311 142.050797,278.485107 
	C139.576752,278.950348 137.113831,278.950348 134.330322,278.950348 
	C134.330322,265.981079 134.330322,253.311172 134.330322,240.037292 
	C136.657394,240.037292 138.913712,240.037292 141.624237,240.088745 
z"/>
<path fill="#000000" opacity="1.000000" stroke="none" 
	d="
M284.026947,193.009201 
	C290.999786,192.995163 291.119171,192.998245 290.941833,199.878159 
	C290.873962,202.511826 290.581451,207.172119 289.600891,207.392548 
	C285.682220,208.273422 281.417297,208.044113 277.372589,207.517853 
	C276.686432,207.428589 276.452209,203.865845 276.462708,201.454407 
	C284.789978,200.931580 283.922150,201.701248 284.003296,193.981232 
	C284.006683,193.657181 284.018860,193.333206 284.026947,193.009201 
z"/>
<path fill="#968568" opacity="1.000000" stroke="none" 
	d="
M306.836365,318.629211 
	C309.277313,318.174408 311.722168,318.174408 315.014069,318.174408 
	C315.014069,323.322601 315.014069,328.068787 315.070343,333.260040 
	C312.767700,333.753510 310.408783,333.801941 307.614624,333.883484 
	C307.066345,328.972443 306.953308,324.028259 306.836365,318.629211 
z"/>
<path fill="#97896D" opacity="1.000000" stroke="none" 
	d="
M306.781525,224.037170 
	C311.621033,224.068558 316.460510,224.099960 321.782288,224.206360 
	C322.264587,226.589310 322.264587,228.897263 322.264587,231.968765 
	C319.924316,231.968765 317.849579,231.968765 315.315430,231.979935 
	C312.217987,231.991104 309.579987,231.991104 306.056335,231.991104 
	C306.056335,229.392105 306.056335,227.141846 306.224945,224.444672 
	C306.393555,223.997726 306.781525,224.037170 306.781525,224.037170 
z"/>
<path fill="#EED154" opacity="1.000000" stroke="none" 
	d="
M172.620590,240.075897 
	C173.062943,243.447800 172.743790,246.802032 173.123840,250.075073 
	C173.703781,255.069916 171.655838,256.736481 166.494843,255.409180 
	C165.914444,252.551849 165.807678,250.152054 165.765503,247.337128 
	C165.850632,244.671463 165.871155,242.420929 165.891678,240.170395 
	C167.985199,240.120880 170.078705,240.071365 172.620590,240.075897 
z"/>
<path fill="#FBF9DD" opacity="1.000000" stroke="none" 
	d="
M165.457047,240.096649 
	C165.871155,242.420929 165.850632,244.671463 165.350128,247.394012 
	C162.309570,247.854568 159.749023,247.843109 157.188461,247.831665 
	C157.151749,245.570068 157.115021,243.308472 157.068207,240.623383 
	C159.712891,240.140884 162.367661,240.081879 165.457047,240.096649 
z"/>
<path fill="#130C0C" opacity="1.000000" stroke="none" 
	d="
M283.715698,192.987854 
	C284.018860,193.333206 284.006683,193.657181 284.003296,193.981232 
	C283.922150,201.701248 284.789978,200.931580 276.471802,201.010284 
	C275.821411,201.005707 275.615479,200.991791 275.101013,200.947571 
	C274.970612,198.515625 275.148743,196.113937 275.390381,192.856094 
	C277.578522,192.856094 279.749176,192.856094 282.351501,192.882996 
	C282.990265,192.928757 283.197357,192.947647 283.715698,192.987854 
z"/>
<path fill="#928164" opacity="1.000000" stroke="none" 
	d="
M306.786621,200.515228 
	C307.121094,201.116150 306.948700,201.583572 306.915649,202.060654 
	C306.449402,208.786301 306.454010,208.786621 299.403107,208.927032 
	C298.969116,206.374542 298.969116,203.771698 298.969116,200.386246 
	C301.591644,200.386246 303.968079,200.386246 306.786621,200.515228 
z"/>
<path fill="#968568" opacity="1.000000" stroke="none" 
	d="
M330.081299,302.540466 
	C329.687836,302.958862 329.360657,302.910889 329.032593,302.903473 
	C321.937561,302.742706 321.937531,302.743591 322.214478,295.141479 
	C324.703522,294.828278 327.122986,294.977753 330.147217,295.164581 
	C330.147217,297.609589 330.147217,299.851318 330.081299,302.540466 
z"/>
<path fill="#8A795E" opacity="1.000000" stroke="none" 
	d="
M252.423004,216.043121 
	C251.980240,213.584244 251.980240,211.196915 251.980240,208.438660 
	C254.676971,208.255554 256.879669,208.106003 259.527008,207.964767 
	C259.781799,210.534180 259.591949,213.095261 259.368134,216.114670 
	C257.018280,216.114670 254.942017,216.114670 252.423004,216.043121 
z"/>
<path fill="#968568" opacity="1.000000" stroke="none" 
	d="
M322.732056,224.245056 
	C322.300781,221.828644 322.300781,219.393066 322.300781,216.359650 
	C324.592529,216.246078 326.805756,216.136398 329.457336,215.988312 
	C329.895721,218.400665 329.895721,220.851440 329.895721,223.798325 
	C327.622375,223.942703 325.392853,224.084305 322.732056,224.245056 
z"/>
<path fill="#97896D" opacity="1.000000" stroke="none" 
	d="
M118.903000,208.177917 
	C126.844360,208.002960 126.844360,208.002960 126.945465,215.602264 
	C124.597847,216.147369 122.217888,216.254913 119.398254,216.442612 
	C118.868973,214.438721 118.779358,212.354675 118.770081,209.532532 
	C118.867935,208.588943 118.885468,208.383438 118.903000,208.177917 
z"/>
<path fill="#907F63" opacity="1.000000" stroke="none" 
	d="
M322.037231,262.570129 
	C319.876770,263.016022 317.776428,263.016022 314.903534,263.016022 
	C314.903534,260.376343 314.903534,258.149658 314.940979,255.477249 
	C317.093384,255.031525 319.208282,255.031525 322.097351,255.031525 
	C322.097351,257.686005 322.097351,259.905121 322.037231,262.570129 
z"/>
<path fill="#928164" opacity="1.000000" stroke="none" 
	d="
M260.406097,208.016281 
	C259.958069,205.839706 259.958069,203.732208 259.958069,200.962540 
	C262.305420,200.962540 264.223877,200.962540 266.589417,200.996552 
	C267.036530,203.118256 267.036530,205.205933 267.036530,208.085358 
	C264.877777,208.085358 262.865967,208.085358 260.406097,208.016281 
z"/>
<path fill="#C8C8C9" opacity="1.000000" stroke="none" 
	d="
M125.935349,341.471680 
	C120.971672,341.866486 116.122231,341.810486 110.844635,341.651123 
	C110.404144,339.290649 110.391815,337.033478 110.197517,334.384674 
	C110.680679,333.994415 111.345879,333.990143 112.010925,333.998169 
	C119.000153,334.082611 119.000145,334.083130 118.978958,326.612396 
	C121.218880,326.175293 123.467453,326.175293 126.049591,326.175293 
	C126.049591,331.267395 126.049591,336.144135 125.935349,341.471680 
z"/>
<path fill="#C5C5C6" opacity="1.000000" stroke="none" 
	d="
M125.242317,302.294067 
	C125.866989,307.391327 126.120514,312.582397 126.392433,318.150055 
	C123.761070,318.150055 121.824928,318.150055 119.437653,318.042633 
	C118.979027,315.561127 118.971535,313.187042 118.950317,309.931854 
	C118.948906,306.987885 118.961220,304.925018 118.973541,302.862152 
	C120.939415,302.704071 122.905296,302.545990 125.242317,302.294067 
z"/>
<path fill="#C5C5C6" opacity="1.000000" stroke="none" 
	d="
M55.770882,333.309845 
	C53.443344,333.783722 51.137844,333.832428 48.397228,333.907532 
	C47.961967,333.609985 47.951088,333.285675 47.963253,332.962219 
	C48.252659,325.265015 46.999683,326.204193 55.627846,326.022339 
	C55.983894,328.320740 55.888412,330.602722 55.770882,333.309845 
z"/>
<path fill="#FEFEFE" opacity="1.000000" stroke="none" 
	d="
M118.536942,302.726471 
	C118.961220,304.925018 118.948906,306.987885 118.910370,309.487274 
	C116.316872,309.945770 113.749588,309.967743 110.757797,310.028046 
	C110.439629,307.759552 110.545959,305.452759 110.677887,302.590790 
	C113.252808,302.590790 115.676575,302.590790 118.536942,302.726471 
z"/>
<path fill="#FEFEFE" opacity="1.000000" stroke="none" 
	d="
M32.618027,309.990112 
	C32.121159,307.955505 32.060036,305.932587 32.006889,303.475220 
	C34.384060,302.981628 36.753258,302.922455 39.557384,302.958313 
	C39.992310,305.165314 39.992310,307.277283 39.992310,310.001801 
	C37.273239,310.001801 35.163502,310.001801 32.618027,309.990112 
z"/>
<path fill="#928164" opacity="1.000000" stroke="none" 
	d="
M118.310272,153.666077 
	C110.154976,154.338959 110.150505,154.338959 110.144730,162.751785 
	C110.136497,174.749771 110.135597,186.747742 110.078552,199.466400 
	C110.028221,200.370728 110.030922,200.554352 110.033623,200.737991 
	C107.903542,200.737991 105.773460,200.737991 103.031296,200.737991 
	C103.031296,171.770203 103.031296,143.349655 103.012955,114.463058 
	C102.994606,113.997009 103.002502,114.049171 103.437393,114.091736 
	C106.182373,114.024315 108.492477,113.914322 110.802574,113.804337 
	C110.783813,116.577286 111.052956,119.388351 110.691772,122.115959 
	C109.650505,129.979401 109.550636,129.966171 117.947083,130.015381 
	C118.557060,130.006577 118.861572,129.963699 118.847000,130.403320 
	C118.935844,133.166275 119.039268,135.489609 118.880493,138.146912 
	C118.515617,143.542618 118.412941,148.604340 118.310272,153.666077 
z"/>
<path fill="#655A4F" opacity="1.000000" stroke="none" 
	d="
M94.747139,105.908119 
	C94.747139,98.490578 94.747139,91.073029 94.747139,83.320618 
	C100.284821,83.320618 105.166626,83.320618 110.945793,83.320618 
	C110.945793,87.950684 110.945793,92.530655 110.971718,97.552979 
	C110.997643,97.995338 111.052780,97.997833 110.606781,98.064377 
	C107.924095,98.241676 105.687401,98.352448 103.002502,98.485405 
	C103.002502,103.965775 103.002502,109.007469 103.002502,114.049171 
	C103.002502,114.049171 102.994606,113.997009 103.020432,113.993851 
	C100.659584,114.028503 98.272903,114.066315 95.436554,113.630898 
	C94.906967,110.741150 94.827049,108.324638 94.747139,105.908119 
z"/>
<path fill="#292017" opacity="1.000000" stroke="none" 
	d="
M94.326920,105.940308 
	C94.827049,108.324638 94.906967,110.741150 94.989914,113.611481 
	C94.992416,120.679260 94.896881,127.295219 95.035583,133.906265 
	C95.095657,136.769974 94.336456,138.065933 91.167450,138.092590 
	C87.875511,138.120285 86.880432,136.953842 86.941681,133.755493 
	C87.112595,124.829781 87.010040,115.898834 87.029129,106.506477 
	C89.330772,106.019493 91.618744,105.995995 94.326920,105.940308 
z"/>
<path fill="#7A6B54" opacity="1.000000" stroke="none" 
	d="
M110.093155,201.187286 
	C110.030922,200.554352 110.028221,200.370728 110.051765,199.911652 
	C110.854881,199.848419 111.678230,200.345657 112.401314,200.227798 
	C118.267502,199.271591 119.339432,202.511154 118.824875,207.735825 
	C118.885468,208.383438 118.867935,208.588943 118.782005,209.097046 
	C116.204819,209.177155 113.696037,208.954651 110.777725,208.680023 
	C110.296364,206.297470 110.224525,203.967010 110.093155,201.187286 
z"/>
<path fill="#928164" opacity="1.000000" stroke="none" 
	d="
M205.501862,294.992401 
	C205.066193,292.642059 205.066193,290.207428 205.066193,287.374084 
	C207.593460,287.150787 209.818237,286.954224 212.486359,286.718506 
	C212.744095,284.723175 213.006165,282.694305 213.315186,280.301880 
	C215.327637,280.157532 217.241745,280.020264 219.603851,280.289124 
	C220.051865,282.603973 220.051865,284.512665 220.051865,286.288849 
	C228.743286,287.783997 228.742386,287.783966 228.884064,279.949127 
	C228.889999,279.621429 228.942276,279.294556 228.972961,278.967316 
	C231.030716,278.975830 233.088486,278.984344 235.583527,279.433655 
	C236.020828,282.117615 236.020828,284.360718 236.020828,286.658813 
	C238.994034,286.658813 241.218277,286.658813 243.991440,286.658813 
	C243.991440,284.199677 243.991440,282.085754 243.991440,279.971832 
	C246.359787,279.987427 248.728149,280.003021 251.541687,280.472534 
	C252.071320,282.820129 252.155762,284.713776 252.239578,286.593384 
	C254.731934,286.593384 256.618225,286.593384 258.972107,286.593384 
	C258.972107,283.830963 258.972107,281.400848 258.972107,278.970764 
	C261.358185,278.984406 263.744293,278.998077 266.566223,279.002258 
	C267.002045,278.992798 266.964569,278.974152 266.996826,279.423309 
	C267.029053,282.119476 267.029053,284.366455 267.029053,286.659637 
	C270.103699,286.659637 272.338531,286.659637 275.174988,286.659637 
	C275.174988,283.865051 275.174988,281.413940 275.347839,278.982941 
	C275.520721,279.003021 275.866577,279.041870 275.866577,279.041870 
	C277.998138,279.041870 280.129730,279.041870 282.639069,279.041870 
	C282.859833,281.646454 283.050964,283.901550 283.290253,286.724640 
	C288.189880,286.724640 293.083099,286.724640 298.808868,286.724640 
	C298.808868,289.343719 298.808868,291.401276 298.718872,293.923279 
	C292.475098,294.364716 286.313080,294.526001 280.170532,294.251160 
	C276.343140,294.079895 274.928711,295.164703 275.028656,299.252380 
	C275.304749,310.544952 275.124176,321.848755 275.124176,333.568787 
	C267.523376,333.568787 260.153931,333.568787 252.209656,333.568787 
	C252.209656,328.630493 252.209656,323.739075 252.209656,318.109894 
	C249.395157,318.109894 247.139893,318.109894 244.435623,318.082306 
	C243.986633,313.025848 243.986633,307.996979 243.986633,302.266235 
	C241.255936,302.266235 239.034470,302.266235 236.363068,302.315002 
	C235.913116,299.899933 235.913116,297.436066 235.913116,294.908112 
	C225.705261,294.908112 215.821381,294.908112 205.501862,294.992401 
z"/>
<path fill="#968568" opacity="1.000000" stroke="none" 
	d="
M298.971252,295.452484 
	C301.452057,294.984863 303.883636,294.984863 306.901611,294.984863 
	C306.901611,302.747620 306.901611,309.978485 306.863892,317.688782 
	C304.489807,318.134888 302.153381,318.101593 299.375183,318.043396 
	C298.929596,310.652374 298.925812,303.286224 298.971252,295.452484 
z"/>
<path fill="#97896D" opacity="1.000000" stroke="none" 
	d="
M118.679871,107.016411 
	C116.404770,106.984581 114.129677,106.952744 111.364990,106.513260 
	C110.934532,103.403008 110.993652,100.700424 111.052780,97.997833 
	C111.052780,97.997833 110.997643,97.995338 110.997620,98.022614 
	C113.334290,98.064751 115.670990,98.079620 118.421837,97.945663 
	C118.883362,100.466812 118.930740,103.136780 118.966537,106.380836 
	C118.954956,106.954926 118.679871,107.016411 118.679871,107.016411 
z"/>
<path fill="#8A795E" opacity="1.000000" stroke="none" 
	d="
M133.559570,75.030327 
	C133.988113,77.385315 133.988113,79.781601 133.988113,82.554787 
	C131.328949,82.738174 129.120621,82.890465 126.467148,83.032005 
	C126.128021,80.751038 126.234039,78.480827 126.369156,75.797455 
	C128.642517,75.280067 130.886780,75.175842 133.559570,75.030327 
z"/>
<path fill="#968568" opacity="1.000000" stroke="none" 
	d="
M125.602188,82.990440 
	C126.045273,85.480286 126.045273,87.901016 126.045273,91.009453 
	C123.712807,91.009453 121.802650,91.009453 119.446198,91.005302 
	C118.867996,88.449242 118.736115,85.897339 118.582306,82.921326 
	C121.233879,82.921326 123.196487,82.921326 125.602188,82.990440 
z"/>
<path fill="#6A5D52" opacity="1.000000" stroke="none" 
	d="
M266.922668,82.986877 
	C271.915741,82.991211 276.947327,83.001198 282.479431,83.479454 
	C282.979980,86.158058 282.979980,88.368385 282.979980,90.963524 
	C286.189423,90.963524 288.607513,90.963524 291.025635,90.963524 
	C291.025635,90.963524 291.002258,91.002106 291.034424,91.425735 
	C291.104370,98.671402 291.104401,98.670235 298.022705,98.889755 
	C298.348480,98.900093 298.672516,98.963585 298.997375,99.002319 
	C299.011108,101.031784 299.024841,103.061249 299.032349,105.994293 
	C299.029419,117.270424 299.032715,127.642982 299.036011,138.015533 
	C298.918304,140.439011 298.800568,142.862473 298.647888,146.005890 
	C290.883728,146.005890 283.389282,146.005890 275.421692,146.008179 
	C274.948517,146.010452 275.002380,146.004028 274.997559,145.574951 
	C274.992767,142.901016 274.992767,140.656174 274.992767,138.080826 
	C272.150146,138.080826 269.885864,138.080826 267.687927,137.614044 
	C267.493530,119.069984 267.232788,100.992722 266.972046,82.915459 
	C266.972046,82.915459 266.961182,82.992523 266.922668,82.986877 
z"/>
<path fill="#292017" opacity="1.000000" stroke="none" 
	d="
M299.476135,138.007629 
	C299.032715,127.642982 299.029419,117.270424 299.070251,106.427223 
	C301.438049,105.979897 303.761749,106.003212 306.520569,106.035484 
	C306.965210,116.375122 306.974701,126.705811 306.974915,137.501099 
	C304.615845,137.977036 302.266083,137.988373 299.476135,138.007629 
z"/>
<path fill="#292017" opacity="1.000000" stroke="none" 
	d="
M291.021362,90.518631 
	C288.607513,90.963524 286.189423,90.963524 282.979980,90.963524 
	C282.979980,88.368385 282.979980,86.158058 282.939514,83.506653 
	C283.225739,83.050468 283.552338,83.026123 283.879211,83.021599 
	C290.996887,82.923271 290.996887,82.923698 291.021362,90.518631 
z"/>
<path fill="#292017" opacity="1.000000" stroke="none" 
	d="
M299.007568,98.554459 
	C298.672516,98.963585 298.348480,98.900093 298.022705,98.889755 
	C291.104401,98.670235 291.104370,98.671402 291.052124,91.411194 
	C291.362122,90.975342 291.686676,90.975372 292.011139,90.980286 
	C299.790009,91.098145 298.910278,90.200638 299.007568,98.554459 
z"/>
<path fill="#907F63" opacity="1.000000" stroke="none" 
	d="
M180.967438,310.520844 
	C183.386871,310.056458 185.836716,310.056458 189.073822,310.056458 
	C189.073822,318.059174 189.073822,325.446503 189.102356,333.284058 
	C186.768250,333.800110 184.405609,333.865997 181.606812,333.881073 
	C181.113052,326.215240 181.055450,318.600250 180.967438,310.520844 
z"/>
<path fill="#1E1614" opacity="1.000000" stroke="none" 
	d="
M173.087524,310.482330 
	C170.859055,310.606049 168.599701,310.606049 166.172638,310.606049 
	C165.921906,307.890869 165.715347,305.654022 165.489792,303.211548 
	C162.833282,303.026459 160.415344,302.858002 157.627502,302.663757 
	C157.627502,300.162842 157.627502,297.800720 157.627502,294.933014 
	C160.243744,294.933014 162.666077,294.933014 165.541061,294.970764 
	C165.993713,295.008545 166.000000,295.000763 165.973480,295.449707 
	C165.946960,297.838776 165.946960,299.778870 165.946960,302.155396 
	C168.645035,302.155396 170.757401,302.155396 172.869766,302.155396 
	C172.869766,302.155396 173.038345,302.518097 173.128113,303.129791 
	C173.134872,305.867371 173.051880,307.993256 172.968872,310.119141 
	C172.968872,310.119141 173.056625,310.358612 173.087524,310.482330 
z"/>
<path fill="#907F63" opacity="1.000000" stroke="none" 
	d="
M173.413849,310.112579 
	C173.051880,307.993256 173.134872,305.867371 173.249695,303.288574 
	C175.662994,302.835632 178.044479,302.835632 181.025314,302.835632 
	C181.025314,305.392365 181.025314,307.279663 180.984467,309.615112 
	C178.582016,310.077515 176.220413,310.091766 173.413849,310.112579 
z"/>
<path fill="#635947" opacity="1.000000" stroke="none" 
	d="
M196.955765,160.983994 
	C196.955765,163.454102 196.955765,165.924210 196.955765,168.772232 
	C199.578110,168.993484 201.828110,169.183304 204.533981,169.411591 
	C204.533981,177.010986 204.533981,184.553802 204.533981,192.526031 
	C202.250687,192.724045 199.994507,192.919693 197.114532,193.169449 
	C197.114532,197.850540 197.114532,202.568314 197.114532,207.911163 
	C191.634354,207.911163 186.754150,207.911163 181.526489,207.911163 
	C181.248932,210.892227 181.025986,213.286652 180.776245,215.968933 
	C170.634201,215.968933 160.726639,215.968933 150.364014,215.968933 
	C150.142258,213.620392 149.916672,211.231110 149.645416,208.358063 
	C144.540573,208.358063 139.615829,208.358063 134.144684,208.358063 
	C134.144684,203.127731 134.144684,198.390076 134.144684,193.367676 
	C131.553848,193.117218 129.479721,192.916702 127.066536,192.683411 
	C127.066536,184.990387 127.066536,177.440475 127.066536,169.512695 
	C129.208954,169.288300 131.287964,169.070557 134.035934,168.782745 
	C134.035934,166.440277 134.035934,164.171158 134.019562,161.451080 
	C134.003189,161.000122 134.001068,161.060669 134.451965,161.091003 
	C137.147003,161.121323 139.391159,161.121323 141.951752,161.121323 
	C141.951752,158.116470 141.951752,155.823410 141.951752,153.530334 
	C157.343033,153.554062 172.734329,153.577805 188.614365,154.009521 
	C189.103119,156.516846 189.103119,158.616165 189.103119,161.054810 
	C192.158890,161.054810 194.584991,161.054810 197.012466,161.025208 
	C197.013840,160.995605 196.955765,160.983994 196.955765,160.983994 
M149.109558,192.995483 
	C147.955704,192.994736 146.791290,193.094421 145.650009,192.974304 
	C142.301224,192.621887 141.982361,194.582001 141.952164,197.243805 
	C141.921188,199.974518 142.831802,201.117050 145.661224,201.043381 
	C148.226639,200.976578 150.347336,200.887512 150.021042,197.441620 
	C149.881805,195.971130 149.994843,194.476761 150.905441,192.999115 
	C153.079834,192.969437 155.254227,192.939758 158.307129,192.953201 
	C163.373550,192.937271 168.439987,192.921341 174.470016,192.949478 
	C176.649704,192.963318 178.829407,192.977142 181.002609,193.888443 
	C181.002304,195.043396 181.103867,196.209183 180.982483,197.351257 
	C180.625534,200.709641 182.595612,201.016693 185.255692,201.047943 
	C187.994141,201.080093 189.125031,200.155655 189.053787,197.329086 
	C188.988922,194.755844 188.886917,192.642273 185.443481,192.970627 
	C183.971451,193.111008 182.475815,193.003830 180.998016,192.111313 
	C180.998245,184.877289 180.998245,184.877289 173.265518,185.111649 
	C173.265518,185.111649 172.998886,184.960327 173.000015,184.073639 
	C172.977676,181.687164 172.955353,179.300674 172.979507,176.039139 
	C172.979507,174.132187 172.979507,172.225220 172.979507,170.420395 
	C181.590607,169.503952 182.071014,168.890533 180.135208,162.205200 
	C170.281891,162.205200 160.413452,162.205200 150.393280,162.205200 
	C150.393280,164.598053 150.393280,166.637543 150.393280,168.627487 
	C157.715652,169.559677 157.715408,169.559677 157.917923,176.556580 
	C157.922714,176.722092 157.949448,176.886963 157.973328,177.871094 
	C157.676712,180.291656 157.380096,182.712204 157.072739,185.040283 
	C157.072739,185.040283 157.151047,185.090652 156.238617,185.024078 
	C151.401306,184.166382 149.025742,185.849014 149.982697,191.039215 
	C150.099915,191.674973 150.003983,192.350021 149.109558,192.995483 
z"/>
<path fill="#160F0E" opacity="1.000000" stroke="none" 
	d="
M266.529358,82.871376 
	C267.232788,100.992722 267.493530,119.069984 267.587402,137.579727 
	C267.420593,138.012207 267.205383,137.949615 267.205383,137.949615 
	C264.921692,137.949615 262.637970,137.949615 260.121765,137.949615 
	C259.986969,136.473175 259.825287,135.522491 259.824432,134.571671 
	C259.809174,117.530823 259.813354,100.489960 259.813354,82.827293 
	C261.904633,82.827293 263.995667,82.827293 266.529358,82.871376 
z"/>
<path fill="#261510" opacity="1.000000" stroke="none" 
	d="
M118.477554,153.755432 
	C118.412941,148.604340 118.515617,143.542618 119.319977,138.160721 
	C122.057404,137.840561 124.093155,137.840561 126.480743,137.840561 
	C126.480743,134.856079 126.480743,132.458679 126.953873,130.035187 
	C129.624466,129.998444 131.821915,129.987823 134.019379,129.977188 
	C134.019379,129.977188 134.006744,129.986343 134.008072,130.458099 
	C134.109985,138.339157 134.210571,145.748444 134.205048,153.338776 
	C134.098938,153.519806 133.908386,153.893784 133.447906,153.892288 
	C128.307907,153.951065 123.628380,154.011337 118.948860,154.071609 
	C118.948860,154.071609 118.644829,153.844803 118.477554,153.755432 
z"/>
<path fill="#928164" opacity="1.000000" stroke="none" 
	d="
M188.988327,153.428726 
	C188.988327,145.882126 188.988327,138.335541 188.988327,130.042084 
	C191.642197,130.042084 193.869522,130.042084 196.542709,130.005096 
	C196.988571,129.968124 196.963501,129.963745 196.909027,130.400909 
	C196.906509,133.172302 196.958450,135.506546 196.952759,138.314117 
	C196.917953,143.533264 196.940781,148.279053 196.823517,153.133667 
	C196.683411,153.242493 196.407730,153.465836 196.021545,153.363251 
	C193.419693,153.316696 191.204010,153.372711 188.988327,153.428726 
z"/>
<path fill="#907F63" opacity="1.000000" stroke="none" 
	d="
M134.311142,153.157715 
	C134.210571,145.748444 134.109985,138.339157 134.009262,130.460602 
	C136.445236,129.991318 138.881348,129.991318 142.049347,129.991318 
	C142.049347,137.840561 142.049347,145.201401 141.621140,152.913177 
	C138.899002,153.228638 136.605072,153.193176 134.311142,153.157715 
z"/>
<path fill="#928164" opacity="1.000000" stroke="none" 
	d="
M213.083359,129.903976 
	C215.195496,130.011063 217.307648,130.118134 219.771851,130.243073 
	C219.771851,137.859695 219.771851,145.188507 219.771851,152.923264 
	C217.738541,153.014618 215.964035,153.094330 213.594116,153.077667 
	C212.998718,152.981262 212.667267,152.745972 212.686340,152.297882 
	C212.694260,144.687485 212.683121,137.525192 212.774170,130.247589 
	C212.876373,130.132294 213.083359,129.903976 213.083359,129.903976 
z"/>
<path fill="#8A795E" opacity="1.000000" stroke="none" 
	d="
M213.165039,153.098099 
	C213.082733,155.819077 212.834122,158.423218 212.579956,161.085449 
	C207.605286,161.085449 202.740555,161.085449 197.415787,161.034729 
	C196.955765,160.983994 197.013840,160.995605 196.995193,160.590820 
	C196.786942,157.945984 196.597336,155.705902 196.407730,153.465836 
	C196.407730,153.465836 196.683411,153.242493 197.286774,153.220367 
	C202.815857,153.047501 207.741562,152.896729 212.667267,152.745972 
	C212.667267,152.745972 212.998718,152.981262 213.165039,153.098099 
z"/>
<path fill="#130C0C" opacity="1.000000" stroke="none" 
	d="
M110.606781,98.064377 
	C110.993652,100.700424 110.934532,103.403008 110.937012,106.552094 
	C110.946724,108.984573 110.894844,110.970558 110.822769,113.380447 
	C108.492477,113.914322 106.182373,114.024315 103.437393,114.091736 
	C103.002502,109.007469 103.002502,103.965775 103.002502,98.485405 
	C105.687401,98.352448 107.924095,98.241676 110.606781,98.064377 
z"/>
<path fill="#968568" opacity="1.000000" stroke="none" 
	d="
M196.992065,129.979706 
	C196.995560,127.560516 196.995560,125.129730 196.995560,122.109398 
	C201.783203,122.109398 206.069794,121.711769 210.246384,122.219391 
	C214.565216,122.744301 212.234741,126.665604 213.007828,129.479614 
	C213.083359,129.903976 212.876373,130.132294 212.365067,130.136414 
	C209.563538,130.097824 207.273300,130.055130 204.538452,130.002884 
	C201.717056,129.983459 199.340286,129.973602 196.963501,129.963745 
	C196.963501,129.963745 196.988571,129.968124 196.992065,129.979706 
z"/>
<path fill="#968568" opacity="1.000000" stroke="none" 
	d="
M134.041916,129.529175 
	C131.821915,129.987823 129.624466,129.998444 126.541183,130.033539 
	C123.390755,130.026581 121.126167,129.995132 118.861572,129.963699 
	C118.861572,129.963699 118.557060,130.006577 118.408981,130.034973 
	C117.923630,122.054451 117.923630,122.054337 125.739296,122.052963 
	C128.206360,122.052536 130.673416,122.052902 133.723526,122.052902 
	C133.848007,124.619095 133.956238,126.850136 134.041916,129.529175 
z"/>
<path fill="#928164" opacity="1.000000" stroke="none" 
	d="
M118.912315,154.516205 
	C123.628380,154.011337 128.307907,153.951065 133.474487,154.340027 
	C133.974731,156.879715 133.987900,158.970200 134.001068,161.060669 
	C134.001068,161.060669 134.003189,161.000122 134.033447,160.999664 
	C129.281372,160.999191 124.499046,160.999191 119.174591,160.999191 
	C119.065285,158.790359 118.970528,156.875580 118.912315,154.516205 
z"/>
<path fill="#6B5F3B" opacity="1.000000" stroke="none" 
	d="
M205.089722,106.443733 
	C202.656876,106.563736 200.224014,106.683739 197.360931,106.824966 
	C197.360931,103.917061 197.360931,101.419563 197.360931,98.568817 
	C199.754974,98.568817 202.116943,98.568817 205.054474,98.568817 
	C205.054474,101.062653 205.054474,103.313904 205.050415,106.020180 
	C205.046371,106.475204 205.089722,106.443733 205.089722,106.443733 
z"/>
<path fill="#5E512D" opacity="1.000000" stroke="none" 
	d="
M205.052643,106.943558 
	C205.089722,106.443733 205.046371,106.475204 205.033203,106.498810 
	C207.458755,106.522423 209.897491,106.522423 212.592133,106.522423 
	C212.592133,109.139717 212.592133,111.359421 212.592133,113.864738 
	C210.081390,113.864738 207.847122,113.864738 205.015549,113.864738 
	C205.015549,111.638344 205.015549,109.540871 205.052643,106.943558 
z"/>
<path fill="#5E512D" opacity="1.000000" stroke="none" 
	d="
M132.847687,106.175079 
	C130.583023,106.290436 128.777466,106.290436 126.551872,106.290436 
	C126.551872,103.716576 126.551872,101.366852 126.551872,98.671295 
	C128.940964,98.671295 131.307266,98.671295 134.407990,98.671295 
	C134.001907,101.395920 133.654358,103.727814 132.847687,106.175079 
z"/>
<path fill="#0E0708" opacity="1.000000" stroke="none" 
	d="
M267.188721,138.394547 
	C267.205383,137.949615 267.420593,138.012207 267.521088,138.046509 
	C269.885864,138.080826 272.150146,138.080826 274.992767,138.080826 
	C274.992767,140.656174 274.992767,142.901016 274.995117,145.601746 
	C272.598938,145.918365 270.200378,145.779114 267.172058,145.603287 
	C267.172058,143.253113 267.172058,141.046295 267.188721,138.394547 
z"/>
<path fill="#CEC4A2" opacity="1.000000" stroke="none" 
	d="
M134.451965,161.091003 
	C133.987900,158.970200 133.974731,156.879715 133.934967,154.341522 
	C133.908386,153.893784 134.098938,153.519806 134.205048,153.338760 
	C136.605072,153.193176 138.899002,153.228638 141.600296,153.417267 
	C142.007660,153.570435 141.978760,153.557678 141.965256,153.544006 
	C141.951752,155.823410 141.951752,158.116470 141.951752,161.121323 
	C139.391159,161.121323 137.147003,161.121323 134.451965,161.091003 
z"/>
<path fill="#D0C6A3" opacity="1.000000" stroke="none" 
	d="
M196.021545,153.363251 
	C196.597336,155.705902 196.786942,157.945984 196.993820,160.620422 
	C194.584991,161.054810 192.158890,161.054810 189.103119,161.054810 
	C189.103119,158.616165 189.103119,156.516846 189.075760,153.918701 
	C189.048401,153.419876 189.016907,153.423981 189.002625,153.426361 
	C191.204010,153.372711 193.419693,153.316696 196.021545,153.363251 
z"/>
<path fill="#5E512D" opacity="1.000000" stroke="none" 
	d="
M118.985718,106.817390 
	C121.263390,106.679855 123.510307,106.679855 126.051453,106.679855 
	C126.051453,109.336678 126.051453,111.390022 126.051453,113.797134 
	C123.707329,113.797134 121.508385,113.797134 118.645424,113.797134 
	C118.645424,111.746292 118.645424,109.836342 118.662643,107.471405 
	C118.679871,107.016411 118.954956,106.954926 118.985718,106.817390 
z"/>
<path fill="#CEC4A2" opacity="1.000000" stroke="none" 
	d="
M228.984344,278.983521 
	C228.942276,279.294556 228.889999,279.621429 228.884064,279.949127 
	C228.742386,287.783966 228.743286,287.783997 220.051865,286.288849 
	C220.051865,284.512665 220.051865,282.603973 220.047699,280.227234 
	C220.043518,279.759155 219.992798,279.430847 220.435089,279.252686 
	C223.594498,279.056671 226.311615,279.038879 229.028748,279.021057 
	C229.028748,279.021057 228.995728,278.999756 228.984344,278.983521 
z"/>
<path fill="#97896D" opacity="1.000000" stroke="none" 
	d="
M228.980103,278.574890 
	C226.311615,279.038879 223.594498,279.056671 220.423309,279.087006 
	C219.991364,278.279724 220.037247,277.459747 220.031311,276.640167 
	C220.010101,273.705963 219.346451,270.917114 224.220047,270.864044 
	C229.054214,270.811432 229.193985,273.230438 228.904556,276.653320 
	C228.863327,277.140869 228.920090,277.636688 228.980103,278.574890 
z"/>
<path fill="#F3EE91" opacity="1.000000" stroke="none" 
	d="
M157.135986,248.283401 
	C159.749023,247.843109 162.309570,247.854568 165.285522,247.809143 
	C165.807678,250.152054 165.914444,252.551849 166.057770,255.382324 
	C165.451294,255.860809 164.808823,255.939575 164.165085,255.951630 
	C156.984116,256.086212 156.984070,256.083435 157.135986,248.283401 
z"/>
<path fill="#968568" opacity="1.000000" stroke="none" 
	d="
M275.868225,278.600891 
	C275.866577,279.041870 275.520721,279.003021 274.883331,278.998230 
	C271.818817,278.986969 269.391693,278.980560 266.964569,278.974152 
	C266.964569,278.974152 267.002045,278.992798 267.013184,279.010895 
	C267.024353,276.595215 267.024353,274.161469 267.024353,271.864716 
	C275.269775,270.031311 275.855438,270.486816 275.868225,278.600891 
z"/>
<path fill="#CEC4A2" opacity="1.000000" stroke="none" 
	d="
M243.985916,279.703766 
	C243.991440,282.085754 243.991440,284.199677 243.991440,286.658813 
	C241.218277,286.658813 238.994034,286.658813 236.020828,286.658813 
	C236.020828,284.360718 236.020828,282.117615 236.024384,279.422607 
	C236.027924,278.970764 236.004425,279.001465 236.433289,279.029602 
	C239.227249,279.005127 241.592346,278.952545 243.957443,278.899933 
	C243.965088,279.078522 243.972748,279.257111 243.985916,279.703766 
z"/>
<path fill="#928164" opacity="1.000000" stroke="none" 
	d="
M306.831879,223.589905 
	C306.781525,224.037170 306.393555,223.997726 306.198608,223.998260 
	C303.903656,223.998779 301.803619,223.998779 298.969238,223.998779 
	C298.969238,221.359756 298.969238,219.122833 298.974854,216.436493 
	C299.303772,216.010025 299.626770,216.047668 299.950378,216.053787 
	C306.963898,216.186234 306.963898,216.185547 306.831879,223.589905 
z"/>
<path fill="#968568" opacity="1.000000" stroke="none" 
	d="
M243.953491,278.462372 
	C241.592346,278.952545 239.227249,279.005127 236.417114,279.039917 
	C235.972076,276.605774 235.972076,274.189392 235.972076,271.901855 
	C243.693451,270.009125 243.936920,270.212677 243.953491,278.462372 
z"/>
<path fill="#CEC4A2" opacity="1.000000" stroke="none" 
	d="
M258.983856,278.986115 
	C258.972107,281.400848 258.972107,283.830963 258.972107,286.593384 
	C256.618225,286.593384 254.731934,286.593384 252.239578,286.593384 
	C252.155762,284.713776 252.071320,282.820129 251.984894,280.488586 
	C251.987411,279.872345 251.991928,279.694000 252.439102,279.280396 
	C254.930496,279.037506 256.979218,279.029846 259.027924,279.022186 
	C259.027924,279.022186 258.995605,279.001465 258.983856,278.986115 
z"/>
<path fill="#968568" opacity="1.000000" stroke="none" 
	d="
M259.023254,278.572693 
	C256.979218,279.029846 254.930496,279.037506 252.444519,279.012878 
	C252.007248,276.556976 252.007248,274.133362 252.007248,271.387634 
	C254.420792,271.387634 256.308411,271.387634 259.018616,271.387634 
	C259.018616,273.675873 259.018616,275.899536 259.023254,278.572693 
z"/>
<path fill="#928164" opacity="1.000000" stroke="none" 
	d="
M172.936218,301.703522 
	C170.757401,302.155396 168.645035,302.155396 165.946960,302.155396 
	C165.946960,299.778870 165.946960,297.838776 165.971146,295.450745 
	C168.119614,295.002808 170.243881,295.002808 173.002670,295.002808 
	C173.002670,297.381989 173.002670,299.316803 172.936218,301.703522 
z"/>
<path fill="#F2F3F4" opacity="1.000000" stroke="none" 
	d="
M118.847000,130.403320 
	C121.126167,129.995132 123.390755,130.026581 126.068047,130.059647 
	C126.480743,132.458679 126.480743,134.856079 126.480743,137.840561 
	C124.093155,137.840561 122.057404,137.840561 119.582169,137.826752 
	C119.039268,135.489609 118.935844,133.166275 118.847000,130.403320 
z"/>
<path fill="#CEC4A2" opacity="1.000000" stroke="none" 
	d="
M266.996826,279.423309 
	C269.391693,278.980560 271.818817,278.986969 274.710449,278.978149 
	C275.174988,281.413940 275.174988,283.865051 275.174988,286.659637 
	C272.338531,286.659637 270.103699,286.659637 267.029053,286.659637 
	C267.029053,284.366455 267.029053,282.119476 266.996826,279.423309 
z"/>
<path fill="#22110D" opacity="1.000000" stroke="none" 
	d="
M157.965942,177.052124 
	C157.949448,176.886963 157.922714,176.722092 157.917923,176.556580 
	C157.715408,169.559677 157.715652,169.559677 150.393280,168.627487 
	C150.393280,166.637543 150.393280,164.598053 150.393280,162.205200 
	C160.413452,162.205200 170.281891,162.205200 180.135208,162.205200 
	C182.071014,168.890533 181.590607,169.503952 172.979507,170.420395 
	C172.979507,172.225220 172.979507,174.132187 172.497406,176.508179 
	C167.332169,177.002197 162.649063,177.027161 157.965942,177.052124 
z"/>
<path fill="#E1387E" opacity="1.000000" stroke="none" 
	d="
M172.998886,184.960327 
	C172.998886,184.960327 173.265518,185.111649 173.474731,185.532043 
	C173.624771,188.270111 173.565598,190.587753 173.506409,192.905411 
	C168.439987,192.921341 163.373550,192.937271 157.811554,192.499634 
	C157.261002,189.727600 157.206024,187.409134 157.151047,185.090652 
	C157.151047,185.090652 157.072739,185.040283 157.537323,185.064453 
	C163.000900,185.045868 167.999893,185.003098 172.998886,184.960327 
z"/>
<path fill="#4A4134" opacity="1.000000" stroke="none" 
	d="
M172.999451,184.516983 
	C167.999893,185.003098 163.000900,185.045868 157.542694,185.110703 
	C157.380096,182.712204 157.676712,180.291656 157.969635,177.461609 
	C162.649063,177.027161 167.332169,177.002197 172.474152,176.945709 
	C172.955353,179.300674 172.977676,181.687164 172.999451,184.516983 
z"/>
<path fill="#4A4134" opacity="1.000000" stroke="none" 
	d="
M180.990906,193.009140 
	C182.475815,193.003830 183.971451,193.111008 185.443481,192.970627 
	C188.886917,192.642273 188.988922,194.755844 189.053787,197.329086 
	C189.125031,200.155655 187.994141,201.080093 185.255692,201.047943 
	C182.595612,201.016693 180.625534,200.709641 180.982483,197.351257 
	C181.103867,196.209183 181.002304,195.043396 181.001297,193.444229 
	C180.999985,193.000015 180.990906,193.009140 180.990906,193.009140 
z"/>
<path fill="#4A4134" opacity="1.000000" stroke="none" 
	d="
M149.993225,192.993240 
	C149.994843,194.476761 149.881805,195.971130 150.021042,197.441620 
	C150.347336,200.887512 148.226639,200.976578 145.661224,201.043381 
	C142.831802,201.117050 141.921188,199.974518 141.952164,197.243805 
	C141.982361,194.582001 142.301224,192.621887 145.650009,192.974304 
	C146.791290,193.094421 147.955704,192.994736 149.554779,192.997742 
	C150.000000,193.000000 149.993225,192.993240 149.993225,192.993240 
z"/>
<path fill="#4A4134" opacity="1.000000" stroke="none" 
	d="
M156.694824,185.057373 
	C157.206024,187.409134 157.261002,189.727600 157.372299,192.478073 
	C155.254227,192.939758 153.079834,192.969437 150.449341,192.996185 
	C149.993225,192.993240 150.000000,193.000000 150.003418,193.003433 
	C150.003983,192.350021 150.099915,191.674973 149.982697,191.039215 
	C149.025742,185.849014 151.401306,184.166382 156.694824,185.057373 
z"/>
<path fill="#4A4134" opacity="1.000000" stroke="none" 
	d="
M173.988220,192.927444 
	C173.565598,190.587753 173.624771,188.270111 173.627640,185.521149 
	C180.998245,184.877289 180.998245,184.877289 180.994461,192.560226 
	C180.990906,193.009140 180.999985,193.000015 181.004547,192.995499 
	C178.829407,192.977142 176.649704,192.963318 173.988220,192.927444 
z"/>
<path fill="#261510" opacity="1.000000" stroke="none" 
	d="
M204.983078,130.012436 
	C207.273300,130.055130 209.563538,130.097824 212.262863,130.251709 
	C212.683121,137.525192 212.694260,144.687485 212.686340,152.297882 
	C207.741562,152.896729 202.815857,153.047501 197.426880,153.111557 
	C196.940781,148.279053 196.917953,143.533264 197.399567,138.315552 
	C200.156631,137.843628 202.409286,137.843628 204.491745,137.843628 
	C204.762695,137.032288 204.945587,136.733200 204.950012,136.431473 
	C204.981522,134.292099 204.976471,132.152176 204.983078,130.012436 
z"/>
<path fill="#F2F3F4" opacity="1.000000" stroke="none" 
	d="
M204.538452,130.002884 
	C204.976471,132.152176 204.981522,134.292099 204.950012,136.431473 
	C204.945587,136.733200 204.762695,137.032288 204.491745,137.843628 
	C202.409286,137.843628 200.156631,137.843628 197.457184,137.842194 
	C196.958450,135.506546 196.906509,133.172302 196.909027,130.400909 
	C199.340286,129.973602 201.717056,129.983459 204.538452,130.002884 
z"/>
</svg>